<?xml version="1.0" encoding="UTF-8" standalone="no"?>
<svg
    xmlns:dc="http://purl.org/dc/elements/1.1/"
    xmlns:cc="http://creativecommons.org/ns#"
    xmlns:rdf="http://www.w3.org/1999/02/22-rdf-syntax-ns#"
    xmlns="http://www.w3.org/2000/svg"
    viewBox="0 0 39.999999 39.999999"
    height="40"
    width="40"
    id="svg4030"
    version="1.1">
  <metadata
      id="metadata4036">
    <rdf:RDF>
      <cc:Work
          rdf:about="">
        <dc:format>image/svg+xml</dc:format>
        <dc:type
            rdf:resource="http://purl.org/dc/dcmitype/StillImage"/>
        <dc:title></dc:title>
      </cc:Work>
    </rdf:RDF>
  </metadata>
  <defs
      id="defs4034"/>
  <g
      transform="matrix(0.39068383,0,0,0.39068383,0.05353236,8.363476e-8)"
      id="g4040">
    <path
        id="path4068"
        d="M 47.244464,101.76247 C 45.449024,101.06117 44.48,100.28261 44.48,99.541376 c 0,-0.285686 0.486294,-1.534157 1.080653,-2.774378 C 47.299901,93.137802 47.301152,93.12 45.817091,93.12 c -1.259814,0 -1.271584,0.01168 -2.395229,2.377763 l -1.129196,2.377763 -2.026333,-0.465609 c -2.897091,-0.66569 -6.771168,-1.97745 -9.506283,-3.218819 L 28.4001,93.12 H 15.80005 3.2 V 76.692118 c 0,-12.945027 -0.1013643,-17.100396 -0.4781136,-19.6 -0.6121709,-4.061542 -0.6121709,-10.922694 0,-14.984236 C 3.092948,39.646016 3.2,35.651549 3.2,24.267881 V 9.6 h 9.718662 9.718662 L 25.707672,7.7280013 C 29.005937,5.7170416 33.489766,3.6230989 33.810608,3.9439402 33.980922,4.1142563 33.600848,6.6213162 33.062294,8.88 32.90585,9.5361283 33.005232,9.6 34.182621,9.6 h 1.292003 l 0.333773,-1.68 c 0.183574,-0.924 0.564182,-3.0463981 0.845795,-4.71644 0.281613,-1.6700421 0.571021,-3.09543963 0.643133,-3.16755014 0.21488,-0.21488037 8.852253,3.69319524 14.878781,6.73207074 5.461824,2.7541242 5.677196,2.8318656 7.84,2.829968 L 62.24,9.5960966 59.36,7.821745 C 57.776,6.8458522 54.104,4.8667302 51.2,3.423697 L 45.92,0.8 50.4,0.70556714 c 5.186906,-0.10933351 8.634109,0.26877404 13.12,1.43907106 5.121712,1.3361724 9.11304,3.0550117 13.705347,5.9021154 L 79.730691,9.6 h 9.874605 9.874605 l 0.19296,17.36 C 99.909136,48.216842 99.909123,50.142682 99.672605,74 L 99.48305,93.12 H 86.741475 73.999901 l -2.38865,1.088544 c -1.313757,0.598698 -3.743734,1.520176 -5.399949,2.047728 -3.001257,0.95599 -8.23847,2.143226 -8.463161,1.918534 -0.06505,-0.06505 0.235011,-1.091539 0.666797,-2.281094 C 58.84672,94.70416 59.2,93.593437 59.2,93.425443 59.2,93.25745 58.655581,93.12 57.990179,93.12 h -1.209821 l -1.584937,4.348749 c -0.911789,2.501769 -1.816067,4.472451 -2.129139,4.640001 -0.916957,0.49074 -4.175053,0.29695 -5.821818,-0.34628 z M 16.267048,83.92 C 14.766224,82.38 12.652164,79.91953 11.569139,78.452291 L 9.6,75.784579 V 81.252291 86.72 h 4.697909 4.69791 z M 51.59983,82.08 c 0.858634,-2.464 2.040957,-6.298822 2.627386,-8.521827 L 55.29345,69.516342 53.486726,66.764781 C 52.493027,65.251424 51.536,64.055187 51.36,64.106477 51.184,64.15777 50.777738,65.054797 50.457197,66.099869 47.495834,75.754906 46.07215,79.345958 44.38736,81.410234 43.03632,83.065587 40.644918,82.33448 36.536186,79.009952 35.377446,78.072371 34.275824,77.44 33.801251,77.44 c -1.774166,0 -5.233216,-6.097891 -6.262474,-11.04 -0.329889,-1.584 -0.933745,-4.248 -1.341902,-5.92 -0.66005,-2.703866 -0.741529,-3.800726 -0.736891,-9.92 0.0047,-6.255024 0.08401,-7.249795 0.872615,-10.950858 C 26.80967,37.37017 27.2,35.46217 27.2,35.369142 27.2,35.276115 24.474346,35.2 21.142992,35.2 h -6.057009 l -0.655057,1.750797 C 12.360137,42.485475 11.810619,50.938518 13.109359,57.28 c 2.66683,13.02159 11.504005,23.444816 24.299947,28.661174 1.644921,0.670564 2.231862,0.725466 7.210032,0.674407 L 50.038678,86.56 Z m 14.098285,3.551459 C 75.859078,81.412877 83.606493,73.537533 87.49135,63.478362 90.641674,55.321136 90.834573,44.609533 87.969072,36.950797 L 87.314016,35.2 h -4.318573 c -4.064467,0 -4.307456,0.03502 -4.129677,0.595152 0.632164,1.991776 1.167936,5.488387 1.330743,8.684848 0.288947,5.672963 -0.944301,12.2876 -3.2724,17.55185 -0.433139,0.979408 -1.070157,3.075692 -1.415587,4.658409 -0.720308,3.300317 -1.950544,6.115536 -3.865341,8.845267 L 70.30727,77.44 68.513635,77.4454 c -1.712406,0.0052 -1.902323,0.09298 -4.193635,1.939174 -1.32,1.063578 -2.802042,2.175764 -3.293424,2.471524 -0.648522,0.390345 -1.033222,1.02103 -1.403424,2.300825 -0.280502,0.96969 -0.577869,1.943075 -0.660816,2.163075 -0.111248,0.295069 0.408563,0.4 1.981542,0.4 1.698061,0 2.66634,-0.221699 4.754237,-1.088539 z M 93.12,81.066666 c 0,-3.109332 -0.05693,-5.593332 -0.126515,-5.52 C 92.923904,75.62 91.965792,76.904 90.864349,78.4 c -1.101443,1.496 -3.230573,3.98 -4.731395,5.52 l -2.728772,2.8 H 88.26209 93.12 Z M 57.130397,56.713494 c -0.04221,-0.04758 -0.440906,0.463786 -0.885994,1.136362 l -0.809257,1.222867 0.682428,0.939015 0.682426,0.939011 0.203568,-2.075373 c 0.111962,-1.141456 0.169034,-2.114304 0.126829,-2.161882 z M 54.569302,50.4 c 1.026666,-1.496 2.005914,-2.72 2.176109,-2.72 0.4396,0 0.04258,-4.547933 -0.775206,-8.88 l -0.679584,-3.6 h -1.66192 -1.66192 l 0.240179,2.16 c 0.132096,1.188 0.247571,5.22 0.256608,8.96 0.009,3.74 0.06652,6.8 0.127754,6.8 0.06123,0 0.951318,-1.224 1.97798,-2.72 z M 30.221608,26.32 c 0.49489,-1.364 1.526121,-4.244 2.291624,-6.4 L 33.905053,16 H 32.682714 C 31.18598,16 28.023792,18.115342 24.460078,21.500522 22.318699,23.534622 18.56,28.045998 18.56,28.582086 18.56,28.701939 20.981407,28.8 23.940904,28.8 h 5.380904 z M 53.44,28.634186 c 0,-0.404378 -3.217117,-6.526993 -3.531782,-6.721467 -0.736608,-0.45525 -0.736628,0.29509 -8.7e-5,3.300559 C 50.326877,26.921975 50.72535,28.428 50.793629,28.56 50.931565,28.826669 53.44,28.896988 53.44,28.634186 Z m 30.4,-0.0521 c 0,-0.119852 -0.796515,-1.257835 -1.770035,-2.52885 -2.205856,-2.879941 -5.774032,-6.29165 -8.810192,-8.423864 C 71.007094,16.047378 70.874672,16 68.705712,16 h -2.233917 l 2.545939,2.651908 c 2.596272,2.704338 4.320196,5.026584 6.167527,8.308092 l 1.035833,1.84 h 3.809453 C 82.125747,28.8 83.84,28.70194 83.84,28.582086 Z M 93.12,19.84 V 16 h -3.071661 -3.071664 l 1.577959,1.84 c 0.867875,1.012 2.20647,2.74 2.974656,3.84 0.768185,1.1 1.440352,2 1.493705,2 0.05335,0 0.09701,-1.728 0.09701,-3.84 z M 13.989422,17.68 15.409487,16 H 12.504743 9.6 v 3.715203 3.715203 l 1.484679,-2.035203 C 11.901252,20.275841 13.208387,18.604 13.989422,17.68 Z"
        style="fill:#ebf5e5;stroke-width:0.31999999"/>
    <path
        id="path4066"
        d="M 47.439254,101.79847 C 45.634579,101.17503 44.48,100.3271 44.48,99.625174 c 0,-0.239596 0.63817,-1.801276 1.418157,-3.470403 L 47.316314,93.12 H 45.890077 44.463843 L 43.382496,95.492854 42.301152,97.865709 40.910576,97.5604 C 38.174032,96.959571 34.133491,95.620496 31.316249,94.380746 L 28.451292,93.12 H 15.825646 3.2 L 3.1944131,76.4 C 3.1899948,63.177347 3.0898472,59.077587 2.715631,56.8 2.1087971,53.106637 2.1087971,46.093363 2.715631,42.4 3.0847324,40.153546 3.1900552,36.229088 3.1944131,24.56 L 3.2,9.6 h 9.845717 9.845717 l 1.23592,-0.8398291 C 27.18915,6.6796262 33.440867,3.5742013 33.814784,3.9481184 33.947734,4.0810682 33.4808,7.1480122 33.06392,8.88 32.905994,9.5361283 33.00489,9.6 34.178794,9.6 c 1.277731,0 1.290816,-0.012323 1.614243,-1.5204144 0.179341,-0.8362278 0.568701,-2.9602278 0.865251,-4.72 0.29655,-1.759772 0.582547,-3.24838361 0.635552,-3.30802563 0.183888,-0.20691384 10.572029,4.50369703 15.479715,7.01943843 4.80584,2.4635347 4.992224,2.5287862 7.2,2.5206774 L 62.24,9.5833526 60,8.1388906 C 58.768,7.3444362 55.20905,5.4401821 52.091222,3.9072144 48.973395,2.3742469 46.417395,0.99286205 46.411222,0.83747043 46.38943,0.2890013 57.862864,0.86499363 61.18368,1.5790816 66.828445,2.7928979 72.831165,5.2356496 77.28,8.1293299 l 2.24,1.456976 9.982205,0.00685 9.982205,0.00685 0.188131,17.3600001 c 0.230557,21.274758 0.230547,23.203258 -2.02e-4,47.04 l -0.185091,19.12 H 86.717978 73.948707 l -2.864957,1.260746 c -3.380182,1.487478 -7.336547,2.733555 -10.757187,3.388032 -1.354576,0.259171 -2.513616,0.471222 -2.575651,0.471222 -0.06203,0 0.238637,-1.033222 0.66815,-2.296048 C 58.848579,94.681125 59.2,93.529125 59.2,93.383954 59.2,93.238778 58.647981,93.12 57.973293,93.12 h -1.226704 l -1.525856,4.169706 c -0.839223,2.293337 -1.737491,4.381334 -1.996154,4.640004 -0.657193,0.65719 -3.703078,0.5881 -5.785325,-0.13124 z M 16.067517,83.698934 c -1.588486,-1.661584 -3.574454,-4.001584 -4.413262,-5.2 C 10.815447,77.300522 10.010091,76.1832 9.8645747,76.016 9.7190586,75.8488 9.6,78.1888 9.6,81.216 v 5.504 h 4.677837 4.677837 z M 51.10383,83.68 c 1.2745,-3.343597 3.895533,-12.222592 3.989876,-13.516064 0.04413,-0.605085 -0.484151,-1.71449 -1.674618,-3.51673 -0.956499,-1.448035 -1.842022,-2.636035 -1.96783,-2.64 -0.424301,-0.01338 -0.924125,1.283732 -2.006426,5.206928 -1.648858,5.976871 -3.75153,10.806848 -5.439443,12.494762 -1.206051,1.206051 -3.860365,0.212634 -7.52312,-2.815645 C 35.361219,77.966394 34.413405,77.44 33.865568,77.44 31.882117,77.44 28.608455,71.470122 27.372947,65.6 26.946948,63.576 26.36374,60.912 26.076931,59.68 25.788899,58.442746 25.474917,55.26497 25.37554,52.58128 25.184144,47.412646 25.519345,43.527904 26.584095,38.574982 26.922843,36.999222 27.2,35.595222 27.2,35.454982 27.2,35.314742 24.460436,35.2 21.11208,35.2 h -6.087921 l -0.337875,0.88 c -0.884952,2.304861 -1.89841,6.972298 -2.188709,10.08 -1.024771,10.970339 2.710844,21.777181 10.321953,29.860611 4.235587,4.498435 8.340925,7.372528 13.687314,9.582307 L 39.2,86.716061 44.603021,86.638029 50.006045,86.56 Z m 15.648621,1.561066 C 75.526416,81.328483 83.176739,73.661565 86.896218,65.053597 89.374784,59.317472 90.505805,52.279267 89.928336,46.185082 89.633274,43.071171 88.618845,38.443843 87.713046,36.08 L 87.37584,35.2 h -4.349485 c -3.995059,0 -4.33536,0.04563 -4.17616,0.56 0.528419,1.707302 1.161043,5.543661 1.344474,8.153171 0.376198,5.351834 -0.810419,12.122151 -3.071882,17.526829 -0.552323,1.32 -1.273481,3.668874 -1.602573,5.219718 -0.685088,3.228496 -1.95502,6.135796 -3.877033,8.875808 L 70.30727,77.44 h -1.984038 c -1.614675,0 -2.097526,0.126022 -2.593635,0.676931 -0.33528,0.372314 -1.769434,1.520643 -3.187011,2.551843 -2.418666,1.759431 -2.603783,1.978884 -3.005581,3.563066 -0.235491,0.92849 -0.50129,1.88439 -0.590663,2.124227 -0.130934,0.35137 0.328522,0.411562 2.365581,0.309907 2.100951,-0.104841 3.020147,-0.345587 5.440528,-1.424908 z M 93.12,80.897462 v -5.82254 l -1.805302,2.638761 c -0.992916,1.451319 -3.167562,4.071459 -4.832548,5.822538 L 83.454902,86.72 H 88.287453 93.12 Z M 57.147427,56.720758 c -0.05157,-0.05157 -0.453069,0.449172 -0.892214,1.112762 l -0.798442,1.206528 0.671613,1.026195 0.671616,1.026195 0.220598,-2.138953 c 0.121328,-1.176426 0.1784,-2.181152 0.126829,-2.232727 z M 54.569302,50.4 c 1.026666,-1.496 2.027786,-2.72 2.224714,-2.72 0.533517,0 0.0092,-4.932691 -1.148042,-10.8 l -0.33135,-1.68 h -1.771549 c -1.56464,0 -1.743715,0.0654 -1.533238,0.56 0.131069,0.308 0.308595,4.34 0.394502,8.96 0.08591,4.62 0.18817,8.4 0.227248,8.4 0.03908,0 0.911053,-1.224 1.937715,-2.72 z M 31.150359,23.904264 c 1.008476,-2.692655 2.037318,-5.572655 2.286313,-6.4 L 33.889389,16 h -1.249363 c -1.607414,0 -4.499072,1.971852 -8.438732,5.754458 C 21.753,24.105152 18.56,27.980123 18.56,28.600637 18.56,28.710287 20.980272,28.8 23.938381,28.8 h 5.378382 z M 53.44,28.607153 c 0,-0.439756 -2.621168,-5.74435 -3.099808,-6.273239 C 49.661539,21.584009 49.28,21.606508 49.28,22.396429 49.28,22.921052 50.240288,26.898141 50.729594,28.4 50.858397,28.795349 53.44,28.992657 53.44,28.607153 Z M 83.836925,28.56 C 83.835325,28.428 83.127309,27.37944 82.26376,26.229866 80.196493,23.477873 75.844646,19.325941 73.091645,17.479094 70.998198,16.074711 70.774826,16 68.669338,16 H 66.45184 l 2.235062,2.32 c 2.605239,2.704249 4.294244,4.932155 6.186202,8.16 l 1.359834,2.32 h 3.803532 c 2.09194,0 3.802144,-0.108 3.800455,-0.24 z M 93.12,20 v -4 h -3.051539 -3.051539 l 2.014774,2.48 c 1.108128,1.364 2.445322,3.163742 2.971539,3.999428 0.526221,0.835685 0.992765,1.519685 1.036765,1.52 C 93.084,23.999742 93.12,22.2 93.12,20 Z m -82.511745,2.16 c 0.40725,-0.66 1.648187,-2.316 2.757639,-3.68 L 15.383079,16 H 12.49154 9.6 v 3.68 c 0,2.024 0.060255,3.68 0.1339011,3.68 0.073645,0 0.4671049,-0.54 0.8743539,-1.2 z"
        style="fill:#e3f1d9;stroke-width:0.31999999"/>
    <path
        id="path4064"
        d="M 47.439254,101.79847 C 45.675965,101.18932 44.48,100.32927 44.48,99.67039 c 0,-0.214729 0.643283,-1.776412 1.42952,-3.470403 L 47.339037,93.12 h -1.455898 -1.455901 l -0.995273,2.24 c -0.725383,1.632576 -1.159341,2.24 -1.600304,2.24 -1.776311,0 -8.34336,-2.11504 -11.441285,-3.684877 L 28.821276,93.12 H 16.010638 3.2 V 76.532118 c 0,-13.086969 -0.100907,-17.257363 -0.4781136,-19.76 -0.6113581,-4.05615 -0.6113581,-10.288086 0,-14.344236 C 3.0935208,39.962214 3.2,35.953491 3.2,24.427881 V 9.6 h 9.796473 9.796473 l 2.283527,-1.4189456 c 2.785565,-1.7309037 8.468487,-4.50276 8.718692,-4.2525578 0.100048,0.1000509 -0.04693,1.288472 -0.326627,2.6409357 C 33.188842,7.921896 32.96,9.1570544 32.96,9.3142285 32.96,9.4714029 33.524067,9.6 34.213485,9.6 c 1.236345,0 1.257939,-0.020787 1.579552,-1.5204144 0.179341,-0.8362278 0.568701,-2.9602278 0.865251,-4.72 0.29655,-1.759772 0.583821,-3.24965609 0.638381,-3.31085336 0.180985,-0.20300295 11.108998,4.77640186 15.764224,7.18304916 4.460966,2.3062215 4.641078,2.3680007 6.88,2.3598944 L 62.24,9.5833526 60,8.141521 C 58.768,7.348513 55.183181,5.411729 52.033731,3.8375558 47.974768,1.8087833 46.469558,0.91322144 46.86417,0.7617952 47.972112,0.33663779 57.994986,0.91256774 61.046534,1.576736 66.873418,2.8449546 72.606195,5.1898582 77.617715,8.3549194 L 79.589162,9.6 h 9.945523 9.945523 l 0.192131,17.52 c 0.234867,21.416918 0.234861,22.708141 -2.49e-4,46.72 l -0.188778,19.28 h -12.89736 -12.89736 l -2.686054,1.25873 c -2.942874,1.379075 -6.927469,2.622185 -10.670282,3.328899 -2.829302,0.53423 -2.790976,0.593145 -1.626595,-2.500323 L 59.491318,93.12 h -1.38191 -1.38191 l -1.503972,4.128704 c -0.827184,2.27079 -1.758211,4.358786 -2.068947,4.639996 -0.766928,0.69407 -3.573299,0.64976 -5.715325,-0.0902 z M 16.463376,84.08 C 15.036485,82.628 12.965429,80.216 11.861028,78.72 10.756628,77.224 9.7960963,75.94 9.7265139,75.866666 9.6569312,75.793334 9.6,78.205334 9.6,81.226666 V 86.72 h 4.728861 4.728861 z m 34.949888,-1.207478 c 0.733296,-2.028116 1.922106,-5.83504 2.641798,-8.459837 l 1.308532,-4.772355 -1.841796,-2.815146 c -1.012988,-1.54833 -1.946099,-2.817402 -2.07358,-2.820163 -0.340772,-0.0074 -1.096653,1.587869 -1.36226,2.874979 -0.508233,2.462877 -2.875843,9.25896 -4.013318,11.52 -1.59456,3.169622 -2.474122,3.98841 -4.015718,3.738243 C 40.742816,81.924992 37.403338,79.864768 36.003619,78.403779 35.348864,77.720362 34.77865,77.44 34.043427,77.44 c -0.806902,0 -1.258726,-0.266115 -2.037421,-1.2 -1.6611,-1.992147 -3.813365,-6.693206 -4.3585,-9.52 -0.271527,-1.408 -0.76914,-3.712 -1.105807,-5.12 -1.755085,-7.34008 -1.706709,-14.947981 0.147503,-23.19711 l 0.722895,-3.216058 -6.236641,0.08658 -6.236642,0.08659 -0.752472,2.231418 c -1.874153,5.557708 -2.3938,13.382947 -1.270791,19.136544 2.582709,13.232195 11.885226,24.393398 24.355198,29.221484 1.782749,0.690237 2.342345,0.741783 7.369251,0.678759 L 50.08,86.56 Z m 14.873533,2.614873 C 76.392397,81.194227 84.301914,72.740944 87.95648,62.327962 90.691917,54.533866 90.78873,45.229059 88.213853,37.591418 L 87.461574,35.36 83.066307,35.27081 c -4.173933,-0.0847 -4.38567,-0.05895 -4.204697,0.511244 0.433024,1.364346 1.108867,5.516298 1.316233,8.086116 0.406336,5.035568 -0.866851,12.327164 -3.068221,17.57183 -0.554051,1.32 -1.27295,3.668874 -1.597558,5.219718 -0.674298,3.221524 -1.940874,6.127242 -3.868883,8.875808 L 70.30727,77.44 h -1.936124 c -1.603335,0 -2.076644,0.132019 -2.753636,0.768067 -0.449632,0.422435 -1.886473,1.566663 -3.192982,2.542723 -2.180522,1.629015 -2.423056,1.927079 -2.955286,3.631933 -0.3189,1.021501 -0.581936,1.980525 -0.584528,2.131162 -0.0026,0.150633 1.111286,0.215181 2.475286,0.143433 1.878614,-0.09881 3.073334,-0.382515 4.926797,-1.169923 z M 93.12,80.919062 v -5.800934 l -2,2.821616 c -1.1,1.551888 -3.296,4.163414 -4.88,5.803392 l -2.88,2.981776 4.88,-0.0026 4.88,-0.0024 z M 57.181882,56.842339 c -0.04784,-0.152713 -0.455568,0.279296 -0.906052,0.960026 l -0.819059,1.237683 0.671613,1.02615 0.671616,1.026151 0.234435,-1.986173 c 0.128938,-1.092397 0.19529,-2.111123 0.147447,-2.263837 z m -0.41402,-9.097894 c 0.311994,-0.06933 0.3897,-0.508461 0.28312,-1.6 C 56.816538,43.743341 56.066298,38.708093 55.670605,36.88 L 55.306966,35.2 h -1.72736 -1.727363 l 0.233879,1.52 C 52.214755,37.556 52.32,41.707779 52.32,45.946179 v 7.706179 l 2.008922,-2.906179 c 1.104908,-1.5984 2.202432,-2.949181 2.43894,-3.001734 z M 30.394666,26 c 1.503604,-4.047772 3.090294,-8.447467 3.34671,-9.28 0.205552,-0.667399 0.123789,-0.72 -1.119174,-0.72 -1.079085,0 -1.739251,0.284237 -3.38078,1.455608 -3.981978,2.841481 -7.269705,6.091996 -9.981306,9.868334 L 18.200233,28.8 h 5.577166 5.577166 z m 22.86494,2.08 c -0.353798,-1.139654 -2.400576,-5.143213 -2.944739,-5.76 -1.209053,-1.370418 -1.336269,-0.268714 -0.376393,3.259588 0.36216,1.331227 0.717638,2.600412 0.789955,2.820412 0.07677,0.233554 0.677264,0.4 1.443091,0.4 1.213082,0 1.294816,-0.05409 1.088086,-0.72 z M 83.139885,27.323942 C 80.364144,23.458278 76.575645,19.753786 72.843536,17.255907 71.102883,16.090898 70.803786,16 68.711037,16 h -2.256035 l 2.079164,2.16 c 2.40616,2.499706 4.59746,5.40637 6.391133,8.477564 L 76.18823,28.8 h 4.00577 4.005766 z m 9.871097,-11.219628 c -0.07118,-0.07118 -1.432729,-0.08776 -3.025673,-0.03686 l -2.896263,0.09255 1.997853,2.435361 c 1.098819,1.339448 2.419783,3.103036 2.935475,3.919083 L 92.96,23.998171 93.0502,20.11595 c 0.04961,-2.135222 0.03197,-3.940456 -0.03921,-4.011632 z M 11.780132,20.64 c 1.059908,-1.408 2.309414,-3.028 2.77668,-3.6 L 15.406386,16 H 12.503193 9.6 v 3.733333 c 0,2.053334 0.056931,3.673334 0.1265139,3.6 C 9.7960963,23.26 10.720225,22.048 11.780132,20.64 Z"
        style="fill:#d8ebca;stroke-width:0.31999999"/>
    <path
        id="path4062"
        d="m 48.48,102.10228 c -1.336739,-0.32335 -3.253846,-1.2688 -3.725754,-1.83741 -0.446083,-0.537497 -0.38694,-0.729222 1.439002,-4.66487 l 1.150595,-2.48 H 45.886262 44.428685 L 43.414342,95.385984 42.4,97.651971 41.080093,97.477603 C 39.198726,97.229062 33.852045,95.480592 31.074934,94.205718 L 28.709868,93.12 H 15.954934 3.2 V 76.372118 c 0,-13.228908 -0.1004586,-17.41439 -0.4781136,-19.92 -0.610438,-4.050044 -0.610438,-9.654192 0,-13.704236 C 3.0940815,40.278496 3.2,36.255434 3.2,24.587881 V 9.6 h 9.796473 9.796473 l 2.283527,-1.4228029 c 2.503298,-1.5597357 8.484183,-4.4832073 8.709946,-4.2574432 0.07792,0.077918 -0.07613,1.2798483 -0.34232,2.6709575 C 33.177904,7.9818202 32.960086,9.228 32.960054,9.36 c -9.9e-5,0.4380208 2.483834,0.2599075 2.656672,-0.1904995 0.09086,-0.2367747 0.491316,-2.3607747 0.889908,-4.72 0.398588,-2.3592253 0.755872,-4.33371714 0.793964,-4.38775969 0.141117,-0.20022176 12.593556,5.49431199 16.389047,7.49475649 3.902883,2.0570461 3.945379,2.0705126 6.24,1.977327 L 62.24,9.44 59.2,7.6248528 C 57.528,6.6265219 53.940771,4.7229155 51.228384,3.3946166 47.722806,1.6778807 46.457885,0.91770141 46.853952,0.765716 47.961427,0.34073795 57.682227,0.90436253 60.82465,1.5757551 66.718106,2.8349183 72.394816,5.1062525 77.323526,8.1771971 L 79.607053,9.6 h 9.936729 9.93673 l 0.191248,17.68 c 0.233376,21.574602 0.233373,22.236029 -2.43e-4,46.4 L 99.483568,93.12 H 86.586851 73.690131 l -2.365065,1.085718 C 66.897318,96.238342 57.92,98.672387 57.92,97.840272 c 0,-0.177562 0.356906,-1.312262 0.79312,-2.521555 L 59.50624,93.12 h -1.389296 -1.389299 l -1.507981,4.08 c -0.829389,2.244 -1.801062,4.332 -2.159274,4.64 -0.683811,0.58796 -2.74584,0.70603 -4.58039,0.26228 z M 16.465586,84.049824 c -1.448898,-1.468595 -3.529455,-3.880595 -4.623459,-5.36 C 10.748122,77.210422 9.7960963,75.94 9.7265139,75.866666 9.6569312,75.793334 9.6,78.205334 9.6,81.226666 V 86.72 h 4.749973 4.749972 z M 50.521866,85.36 c 0.942057,-2.212317 2.837574,-8.130109 3.8668,-12.072118 L 55.347424,69.61576 53.513712,66.812899 C 52.505171,65.271328 51.58856,64.007782 51.476803,64.005021 51.036038,63.994141 50.344582,65.554006 49.776848,67.84 49.449024,69.16 48.687811,71.670512 48.085267,73.418915 46.091306,79.204803 44.212486,82.24 42.624925,82.24 c -1.104243,0 -4.351651,-1.808464 -6.14873,-3.424192 C 35.384262,77.834067 34.668224,77.44 33.976278,77.44 33.24697,77.44 32.758557,77.142531 32.006006,76.24 30.332641,74.233142 28.191721,69.546992 27.65669,66.72 27.390214,65.312 26.963447,63.362118 26.708318,62.386931 24.828306,55.200896 24.877166,45.82208 26.837066,37.673376 l 0.598075,-2.486621 -6.27757,0.08662 L 14.88,35.36 14.186967,37.44 c -1.392778,4.180147 -1.805212,6.958323 -1.805212,12.16 0,3.500694 0.162797,5.71319 0.553328,7.52 2.857579,13.220742 11.741478,23.846989 23.971624,28.673034 2.189571,0.864009 2.536227,0.905436 7.664666,0.915952 l 5.371369,0.01101 0.579124,-1.36 z m 14.252924,0.728672 c 2.635716,-0.906816 7.093712,-3.326125 9.632743,-5.227587 C 79.429642,77.100064 83.175574,72.562496 86.08153,66.72 90.33351,58.17128 91.280662,48.664387 88.801267,39.421018 87.575834,34.852506 88.05391,35.2 82.994051,35.2 h -4.343433 l 0.224764,0.88 c 2.206167,8.637706 1.623575,16.873632 -1.790656,25.313949 -0.544204,1.345328 -1.253478,3.714925 -1.57616,5.265769 -0.669686,3.21857 -1.934809,6.123584 -3.865385,8.875808 L 70.30727,77.44 h -1.994454 c -1.367709,0 -2.117584,0.148368 -2.386294,0.472141 -0.215514,0.25968 -1.648452,1.407769 -3.184304,2.551315 -2.698234,2.009018 -2.810509,2.14409 -3.327338,4.003027 -0.294186,1.058119 -0.53488,1.998029 -0.53488,2.088685 0,0.437328 4.243955,0.101475 5.89479,-0.466496 z M 93.12,80.919062 v -5.800934 l -2,2.816013 c -1.1,1.548806 -3.303181,4.159229 -4.895962,5.800937 L 83.32808,86.72 H 88.224038 93.12 Z M 57.203222,56.983306 c -0.04811,-0.264 -0.434108,0.07356 -0.914838,0.800025 l -0.831613,1.256717 0.671613,1.026109 0.671616,1.026109 0.243222,-1.826132 c 0.13377,-1.004374 0.20577,-2.031648 0.16,-2.282828 z M 56.791466,47.739898 C 57.320512,47.623152 57.245206,46.522176 56.283962,40.32 55.434109,34.836563 55.625808,35.2 53.583341,35.2 h -1.73353 l 0.235095,2 C 52.214208,38.3 52.32,42.452077 52.32,46.426838 v 7.226839 l 2.008922,-2.906839 c 1.104908,-1.598761 2.213052,-2.951884 2.462544,-3.00694 z M 30.691234,25.280542 C 31.876368,22.188557 33.92,16.377759 33.92,16.099972 33.92,16.044987 33.331533,16 32.612298,16 c -1.054581,0 -1.779685,0.325187 -3.746074,1.68 -2.921199,2.012663 -7.379388,6.39946 -9.286662,9.137949 L 18.199124,28.8 h 5.571564 5.571565 z M 53.44,28.474186 C 53.44,27.675441 50.195216,21.76 49.757082,21.76 c -0.642823,0 -0.60994,0.607721 0.220752,4.08 l 0.708134,2.96 h 1.377018 C 52.820342,28.8 53.44,28.653384 53.44,28.474186 Z M 83.017402,27.12 C 80.160813,23.12954 76.294378,19.41169 72.49568,17.002628 71.117254,16.128455 70.631482,16 68.704106,16 h -2.210592 l 2.424016,2.576742 c 2.441536,2.595368 5.776832,7.256371 6.571312,9.183258 l 0.428803,1.04 h 4.151197 4.151193 z m 9.99358,-11.015686 c -0.07118,-0.07118 -1.449584,-0.08776 -3.063126,-0.03686 l -2.933715,0.09255 1.628883,1.92 c 0.895888,1.056 2.233706,2.801817 2.972931,3.879594 L 92.96,23.919192 93.0502,20.07646 c 0.04961,-2.113502 0.03197,-3.900966 -0.03921,-3.972142 z M 11.794973,20.64 c 1.06807,-1.408 2.325594,-3.028 2.794497,-3.6 L 15.442022,16 H 12.521011 9.6 v 3.733333 c 0,2.053334 0.056931,3.673334 0.1265139,3.6 C 9.7960963,23.26 10.726903,22.048 11.794973,20.64 Z"
        style="fill:#c7e4b4;stroke-width:0.31999999"/>
    <path
        id="path4060"
        d="m 48.16,101.95238 c -1.988154,-0.62877 -3.295894,-1.40628 -3.512339,-2.088246 -0.120803,-0.380611 0.167232,-1.346579 0.740541,-2.48351 C 45.90423,96.35728 46.551642,94.98 46.82689,94.32 l 0.500454,-1.2 -1.503674,0.0128 -1.50367,0.0128 -1.037846,2.25568 -1.037847,2.255677 -1.362153,-0.222995 c -2.04136,-0.334164 -7.072298,-1.994487 -9.773405,-3.225418 L 28.7201,93.12 H 15.96005 3.2 L 3.1973419,76.4 C 3.1952908,63.497962 3.0871107,58.876218 2.7235891,56.16 c -0.5979546,-4.467891 -0.5979546,-8.652109 0,-13.12 0.3574817,-2.671088 0.4717357,-7.127875 0.4737528,-18.48 L 3.2,9.6 h 9.910022 9.910021 L 25.305322,8.1216608 C 27.626233,6.620271 33.561075,3.6944083 33.800317,3.9336496 33.872339,4.0056723 33.712733,5.103479 33.445632,6.3732202 32.762675,9.6198832 32.757914,9.6 34.218435,9.6 35.140445,9.6 35.5212,9.4502915 35.642685,9.04 35.983642,7.8884899 37.12,1.5377462 37.12,0.78375542 37.12,0.35268995 37.17343,0 37.238736,0 37.390656,0 45.717142,3.7086461 49.28,5.3632214 c 1.496,0.6947357 3.935578,1.9377821 5.421283,2.7623248 2.63121,1.4602781 2.764029,1.4967725 5.12,1.4068112 L 62.24,9.44 59.445027,7.7415584 C 56.985149,6.2467453 48.015712,1.6380166 46.72,1.203111 45.587776,0.82308019 49.071507,0.56346339 52.933661,0.74005251 58.268173,0.9839623 61.931834,1.6418169 66.598806,3.1937948 70.699386,4.5574211 73.910077,6.0723405 77.209978,8.200528 L 79.379955,9.6 h 10.048448 10.048448 l 0.193856,18 c 0.235488,21.865683 0.235491,21.280762 -2.88e-4,45.76 L 99.480093,93.12 H 86.579997 73.679901 l -2.38865,1.088544 c -4.138662,1.886048 -12.632355,4.237021 -13.212329,3.657043 -0.08665,-0.08665 0.196169,-1.197497 0.628483,-2.468557 l 0.786025,-2.311011 -1.455363,0.09699 -1.455366,0.09699 -1.432055,4 c -0.791856,2.211805 -1.724758,4.250351 -2.0868,4.560001 -0.776857,0.66444 -2.997344,0.71532 -4.903846,0.11238 z M 17.889155,85.455053 c -1.743809,-1.4948 -5.475915,-5.861507 -7.120094,-8.330781 L 9.6,75.368544 V 81.044272 86.72 l 4.88,-0.0019 4.88,-0.0019 -1.470845,-1.260816 z M 52.107114,80.88 c 1.064803,-3.212 2.239692,-7.044928 2.610864,-8.517619 l 0.674857,-2.677619 -1.856416,-2.836944 C 52.515389,65.287501 51.560624,64.048221 51.414723,64.093862 50.885546,64.259408 50.259411,65.837827 49.167059,69.76 47.109888,77.146416 44.636096,81.964989 42.790346,82.180874 41.675034,82.311325 38.685318,80.719168 36.568611,78.867526 35.409754,77.853786 34.656998,77.44 33.971664,77.44 c -0.723974,0 -1.215037,-0.299782 -1.965658,-1.2 -1.65958,-1.990323 -3.813252,-6.693232 -4.359634,-9.52 -0.272151,-1.408 -0.853994,-4.206262 -1.292986,-6.218362 -1.465674,-6.717849 -1.358192,-13.852339 0.329448,-21.868217 l 0.725632,-3.446579 -6.264233,0.08658 L 14.88,35.36 14.011078,38.013824 c -3.055293,9.33135 -2.169219,19.983184 2.418254,29.070733 4.388809,8.694006 11.183967,14.89175 20.690668,18.871593 1.606243,0.672429 2.253203,0.737978 7.405552,0.750324 l 5.645555,0.01354 1.936007,-5.84 z M 67.59768,84.895507 C 72.150006,82.705213 75.405594,80.427562 78.716576,77.116576 85.971354,69.861798 90.24,59.668774 90.24,49.6 c 0,-3.271254 -0.830403,-8.46887 -1.851078,-11.586176 L 87.52,35.36 83.12,35.27097 c -2.42,-0.04897 -4.4,-0.02189 -4.4,0.06014 0,0.08204 0.223802,1.114185 0.497338,2.293644 1.691257,7.292564 0.955264,15.945418 -1.980391,23.282852 -0.63,1.57463 -1.408617,4.147459 -1.730265,5.717395 -0.664573,3.243734 -1.920797,6.141008 -3.863501,8.910521 L 70.30727,77.44 h -2.014748 c -1.108112,0 -2.099456,0.137056 -2.202986,0.30457 -0.103526,0.167513 -1.531571,1.314246 -3.173434,2.548294 -2.8792,2.164054 -3.003856,2.310221 -3.510649,4.116422 C 59.116454,85.439274 58.88,86.395315 58.88,86.53383 c 0,0.138516 1.188,0.198704 2.64,0.133757 2.40376,-0.107517 2.947619,-0.266093 6.07768,-1.77208 z M 93.12,80.96 c 0,-3.168 -0.05161,-5.76 -0.114694,-5.76 -0.06308,0 -0.659722,0.828 -1.325863,1.84 -1.645209,2.499389 -5.374576,6.87721 -7.168598,8.415053 L 83.04,86.715869 l 5.04,0.0019 5.04,0.0022 z M 57.21033,57.138973 c -0.07269,-0.499751 -0.25273,-0.374765 -0.921946,0.640025 l -0.831613,1.26105 0.671613,1.026131 L 56.8,61.09231 57.05033,59.426154 c 0.13768,-0.916384 0.20968,-1.945616 0.16,-2.287181 z m -0.381786,-9.406215 c 0.400387,-0.0875 0.45369,-0.440883 0.289603,-1.92 C 56.852182,43.415267 55.678304,36.207926 55.461962,35.644141 55.345802,35.341437 54.743254,35.2 53.569846,35.2 h -1.721683 l 0.235917,2.48 c 0.129757,1.364 0.23592,5.516195 0.23592,9.227104 v 6.747101 l 2.008922,-2.907101 c 1.104908,-1.598909 2.229737,-2.955363 2.499622,-3.014346 z M 29.593805,28.24 c 1.66749,-4.201021 4.307417,-11.625482 4.32375,-12.16 0.0013,-0.044 -0.586022,-0.08 -1.305257,-0.08 -1.053247,0 -1.784215,0.3269 -3.756578,1.68 -2.936605,2.014599 -7.371546,6.378479 -9.276158,9.127526 L 18.199124,28.8 h 5.586201 c 5.022182,0 5.608645,-0.05654 5.80848,-0.56 z M 53.44,28.474186 c 0,-0.179198 -0.726029,-1.772595 -1.613398,-3.540884 -1.210026,-2.411262 -1.750055,-3.188751 -2.16,-3.109803 -0.696836,0.134198 -0.696084,0.146096 0.243344,3.856501 l 0.789945,3.12 h 1.370055 C 52.823475,28.8 53.44,28.653384 53.44,28.474186 Z m 29.380438,-1.66666 C 80.915827,24.058479 76.480883,19.694599 73.544278,17.68 71.149434,16.037064 71.044765,16 68.799978,16 H 66.50455 l 2.457133,2.64 c 2.443255,2.625085 5.343875,6.667724 6.428864,8.96 l 0.567987,1.2 h 4.121172 4.121171 z M 93.010982,16.104314 c -0.07118,-0.07118 -1.459683,-0.08776 -3.085574,-0.03686 l -2.95616,0.09255 1.892102,2.257652 c 1.04066,1.241708 2.388576,3.024555 2.995376,3.961883 L 92.96,24.083771 93.0502,20.15875 c 0.04961,-2.158762 0.03197,-3.983256 -0.03921,-4.054432 z M 13.424706,18.56 C 15.723907,15.85666 15.775746,16 12.498885,16 H 9.6 v 3.915729 3.915728 l 1.163909,-1.755728 C 11.404059,21.110078 12.601418,19.528 13.424706,18.56 Z"
        style="fill:#badea3;stroke-width:0.31999999"/>
    <path
        id="path4058"
        d="M 48.55503,102.05182 C 46.86521,101.65371 44.917539,100.60786 44.671395,99.966426 44.55033,99.650934 44.88199,98.545267 45.467389,97.312794 46.019331,96.150758 46.672896,94.732 46.919754,94.16 l 0.448835,-1.04 -1.524295,0.0128 -1.524294,0.0128 -1.041126,2.262589 -1.04113,2.262589 -1.159254,-0.217479 C 38.717549,97.010384 34.525014,95.660426 31.625626,94.409558 L 28.64,93.121514 15.927858,93.120755 3.2157165,93.12 3.1121798,75.44 C 3.0398007,63.080496 2.8737175,56.532192 2.5602855,53.68 2.1760244,50.18327 2.1759078,49.01673 2.55947,45.52 2.8631378,42.751622 3.0408084,36.322096 3.1121405,25.52 L 3.2172688,9.6 h 9.9013872 9.901387 L 25.190022,8.2013814 C 27.646953,6.6178128 29.962268,5.4093315 32.319059,4.4803709 L 33.930931,3.8450304 33.78023,4.5625152 C 32.680515,9.7982877 32.665312,9.65812 34.32,9.5383994 L 35.68,9.44 36.426941,5.12 c 0.410819,-2.376 0.798893,-4.49112557 0.86239,-4.70027901 0.136986,-0.4512288 8.504544,3.21822751 15.51953,6.80583871 L 57.510064,9.6298534 59.87503,9.5349267 62.24,9.44 60,8.0143456 C 58.768,7.2302355 55.251014,5.3334483 52.184474,3.7992627 L 46.608947,1.0098342 47.843162,0.77829395 c 1.896902,-0.35586118 8.904547,0.0818835 12.510854,0.78151215 5.901779,1.1449542 12.159654,3.5984147 16.74649,6.5656256 L 79.379955,9.6 h 10.048448 10.048448 l 0.193856,18 c 0.235488,21.865683 0.235491,21.280762 -2.88e-4,45.76 L 99.480093,93.12 86.620048,93.12064 73.76,93.12128 70.774374,94.40935 c -4.279212,1.846157 -12.157836,3.99362 -12.692012,3.459444 -0.08854,-0.08854 0.192729,-1.200938 0.625043,-2.471997 l 0.786025,-2.311011 -1.447379,0.09699 -1.447376,0.09699 -1.555504,4.146868 c -0.855529,2.280774 -1.809753,4.332776 -2.120499,4.559996 -0.633885,0.46351 -2.554726,0.49208 -4.367642,0.065 z M 16.38591,83.889491 c -1.533238,-1.556777 -3.687302,-4.0952 -4.786808,-5.640934 L 9.6,75.438128 V 81.079062 86.72 h 4.786808 4.786808 z M 51.580016,82.64 c 0.801747,-2.244 1.993229,-6.068406 2.647734,-8.498682 l 1.19001,-4.418684 -1.86888,-2.856295 c -1.027885,-1.570966 -1.96032,-2.858557 -2.072077,-2.861318 -0.420947,-0.0104 -1.154333,1.496867 -1.554569,3.194979 -0.659271,2.797139 -2.531188,8.280307 -3.659735,10.72 -1.32703,2.868771 -2.543171,4.32 -3.620192,4.32 -1.067158,0 -4.331926,-1.834848 -6.216659,-3.493856 C 35.388358,77.833085 34.650592,77.44 33.974192,77.44 c -0.726896,0 -1.216506,-0.298512 -1.968186,-1.2 -1.666007,-1.998032 -3.813732,-6.693123 -4.354834,-9.52 -0.269509,-1.408 -0.762638,-3.784 -1.09584,-5.28 -1.277739,-5.736749 -1.556371,-10.581965 -0.934634,-16.252611 0.299572,-2.732291 1.247237,-7.797027 1.76291,-9.42177 C 27.551148,35.237747 27.138778,35.2 21.204551,35.2 h -6.358578 l -0.693046,2.16 c -1.118082,3.484701 -1.703683,6.720518 -1.896614,10.48 -0.829441,16.162589 8.857948,31.401558 24.002359,37.757459 l 2.621328,1.100135 5.621146,0.0112 5.621145,0.0112 1.457725,-4.08 z m 14.28223,3.074176 C 76.470691,81.372714 84.886454,72.323165 88.287584,61.6 89.730362,57.051181 90.080874,54.659923 90.070006,49.44 90.059574,44.433613 89.803178,42.662739 88.413581,38 L 87.57912,35.2 H 83.149562 C 80.127664,35.2 78.72,35.312435 78.72,35.553811 c 0,0.194595 0.215475,1.185357 0.478835,2.201693 1.748349,6.747094 0.8556,16.396749 -2.206,23.844496 -0.578797,1.408 -1.282685,3.759315 -1.564198,5.225142 -0.583405,3.037754 -1.848851,5.949565 -3.785456,8.710384 L 70.30727,77.44 h -2.014748 c -1.108112,0 -2.099456,0.137056 -2.202986,0.30457 -0.103526,0.167513 -1.521738,1.306854 -3.151578,2.531868 -2.747635,2.065168 -3.003184,2.353687 -3.510652,3.963556 -0.301018,0.95494 -0.547306,1.9036 -0.547306,2.108131 0,0.24743 0.757034,0.371875 2.262246,0.371875 1.801892,0 2.762384,-0.204678 4.72,-1.005824 z M 93.103216,80.88 c -0.01606,-5.593315 -0.03973,-5.80656 -0.56,-5.048374 -2.179363,3.175977 -4.585626,6.130784 -6.778074,8.323232 L 83.2,86.72 h 4.96 4.96 L 93.1032,80.88 Z M 57.205741,57.45752 57.12,56.515043 l -0.831616,1.262503 -0.831613,1.262502 0.671613,1.025846 0.671616,1.025844 0.245741,-1.345869 c 0.135155,-0.740227 0.207155,-1.769984 0.16,-2.288349 z m -0.383866,-9.723478 c 0.395139,-0.0865 0.447715,-0.468493 0.286295,-2.08 C 56.848307,43.059802 56.034256,37.913075 55.644467,36.4 L 55.335331,35.2 H 53.58543 51.835533 l 0.242233,2.32 C 52.210995,38.796 52.32,42.948112 52.32,46.746915 v 6.906919 l 2.008922,-2.906919 c 1.104908,-1.598803 2.226736,-2.954595 2.492953,-3.012873 z M 31.508747,23.2 c 1.106341,-2.992 2.10421,-5.836 2.21749,-6.32 C 33.924976,16.030837 33.88673,16 32.634838,16 c -0.713546,0 -1.688289,0.246279 -2.166097,0.547287 -1.577391,0.993721 -4.683563,3.413134 -6.2711,4.884592 -1.336368,1.238653 -5.028845,5.704352 -5.767797,6.9756 -0.18884,0.32487 0.909017,0.389745 5.415256,0.32 L 29.497216,28.64 Z M 52,25.28 c -1.602586,-3.195466 -2.35207,-4.054207 -2.843878,-3.258448 -0.08891,0.143854 0.224896,1.727854 0.697337,3.52 L 50.712442,28.8 h 1.526451 1.526454 z m 31.871856,2.96 C 83.700992,27.932 82.631491,26.512139 81.495187,25.084752 79.298938,22.325898 76.16568,19.456935 73.004278,17.310068 71.18975,16.077847 70.938787,16 68.780867,16 h -2.294246 l 1.902051,2.033298 c 1.046125,1.118314 2.551482,2.882314 3.345232,3.92 1.509478,1.97337 4.106096,6.138546 4.106096,6.586498 0,0.143112 1.877066,0.260204 4.171258,0.260204 3.877641,0 4.149392,-0.03942 3.860598,-0.56 z M 93.12,20 v -4 h -3.04 c -1.672,0 -3.04,0.117059 -3.04,0.260131 0,0.143072 0.43688,0.678689 0.970845,1.19026 0.533968,0.511572 1.863248,2.194513 2.953961,3.739869 C 92.05552,22.735617 92.986637,24 93.033962,24 93.081283,24 93.12,22.2 93.12,20 Z M 14.270225,17.586508 C 14.869602,16.963087 15.36,16.351087 15.36,16.226508 15.36,16.101929 14.064,16 12.48,16 H 9.6 v 3.87363 3.87363 l 1.790225,-2.51363 c 0.984624,-1.382497 2.280624,-3.023701 2.88,-3.647122 z"
        style="fill:#b3da99;stroke-width:0.31999999"/>
    <path
        id="path4056"
        d="m 48.51632,102.06042 c -1.543062,-0.38285 -3.629549,-1.53273 -3.857085,-2.125687 -0.09372,-0.244243 0.475607,-1.826509 1.265178,-3.516147 C 46.713987,94.728944 47.36,93.295549 47.36,93.233258 47.36,93.170966 46.672045,93.12 45.831206,93.12 h -1.52879 l -0.918413,2.108157 c -0.505129,1.159488 -1.107197,2.180601 -1.337929,2.269142 -0.661956,0.254016 -7.061018,-1.646825 -10.358263,-3.076918 L 28.689635,93.12 H 15.944817 3.2 L 3.1973419,76.24 C 3.195288,63.197062 3.0875973,58.559853 2.7235891,55.84 c -0.5965098,-4.457098 -0.5965098,-8.022902 0,-12.48 C 3.081678,40.684374 3.1953214,36.21303 3.1973419,24.72 L 3.2,9.6 h 9.909203 9.909202 L 25.029203,8.2932336 C 26.793501,7.1466611 31.797557,4.6004314 33.349158,4.0597648 33.952902,3.8493859 33.940858,4.0515216 33.128659,7.76 L 32.725677,9.6 h 1.378275 c 0.758054,0 1.44601,-0.1095907 1.52879,-0.2435354 0.08278,-0.1339443 0.484538,-2.2219443 0.892791,-4.64 C 36.990387,1.9631421 37.409322,0.32 37.646445,0.32 c 0.608166,0 10.10208,4.3279018 15.188585,6.923879 L 57.510064,9.6298534 59.87503,9.5349267 62.24,9.44 60,8.0089005 C 58.768,7.2217958 55.272656,5.3324643 52.232573,3.8103862 46.10088,0.74043379 46.059696,0.64 50.932611,0.64 c 9.268135,0 19.892903,3.1610294 27.045047,8.046312 L 79.315312,9.6 H 89.39624 99.477165 l 0.192694,18.16 c 0.236301,22.269683 0.236301,21.099158 2.3e-5,45.44 L 99.476518,93.12 H 86.593443 73.710365 l -2.986759,1.295427 C 66.41111,96.285859 57.92,98.528675 57.92,97.797334 c 0,-0.100499 0.36,-1.139155 0.8,-2.308128 0.44,-1.168972 0.8,-2.18815 0.8,-2.264838 0,-0.07669 -0.662531,-0.09555 -1.472291,-0.0419 L 56.575418,93.28 55.046483,97.385229 c -0.840915,2.257872 -1.68191,4.258201 -1.868873,4.445161 -0.46992,0.46992 -3.159453,0.60264 -4.66129,0.23003 z M 17.882612,85.345661 C 15.79264,83.442038 12.979364,80.21416 11.157821,77.629814 L 9.6,75.419629 V 81.069814 86.72 l 4.88,-0.01434 4.88,-0.01434 -1.477388,-1.345661 z M 50.24,86.627859 c 0,-0.05067 0.655856,-1.951821 1.457459,-4.224765 0.801603,-2.272944 1.964227,-6.058953 2.583607,-8.413353 l 1.12615,-4.280727 -1.70361,-2.58063 c -0.936982,-1.419344 -1.812665,-2.739872 -1.945961,-2.934506 -0.343703,-0.501862 -1.427127,0.983277 -1.672855,2.29313 -0.108876,0.580368 -0.782521,2.886214 -1.496988,5.124102 C 46.434646,78.355347 44.302646,82.24 42.754384,82.24 41.676083,82.24 39.096259,80.840099 36.872941,79.048528 35.496698,77.939539 34.586378,77.44 33.941686,77.44 c -0.689334,0 -1.198064,-0.315379 -1.93568,-1.2 -1.682704,-2.018058 -3.814994,-6.692877 -4.342284,-9.52 -0.262608,-1.408 -0.772705,-3.856 -1.133548,-5.44 -1.092321,-4.794986 -1.431272,-9.823734 -0.988466,-14.66511 0.341136,-3.729776 1.198166,-8.821047 1.808671,-10.744576 C 27.561472,35.205216 27.513544,35.2 21.192003,35.2 h -6.371125 l -0.883902,2.881459 c -5.903352,19.244499 3.80161,39.917671 22.320582,47.546522 l 2.622442,1.080307 5.68,0.0059 c 3.124,0.0032 5.68,-0.03561 5.68,-0.08629 z M 65.866691,85.742861 C 76.19328,81.629843 84.586522,72.709587 88.131542,62.08 90.8124,54.041562 90.915846,46.077478 88.444061,38.019635 L 87.57912,35.2 h -4.429558 c -2.43626,0 -4.429562,0.08538 -4.429562,0.189734 0,0.104352 0.30111,1.652352 0.669133,3.44 0.567078,2.754525 0.646681,4.031188 0.521923,8.370266 -0.163126,5.673546 -0.855322,9.076659 -2.896419,14.24 -0.591376,1.496 -1.305319,3.919315 -1.586538,5.385142 -0.58271,3.037328 -1.847917,5.948999 -3.784918,8.710384 L 70.30727,77.44 h -1.869097 c -1.833562,0 -1.931968,0.04715 -5.175866,2.48 l -3.306768,2.48 -0.653091,2.16 -0.653094,2.16 h 2.382016 c 1.907017,0 2.871228,-0.194851 4.835321,-0.977139 z M 93.103216,80.88 c -0.0161,-5.594726 -0.0396,-5.806605 -0.56,-5.04487 -1.968544,2.881449 -4.653683,6.156547 -6.840115,8.342982 L 83.161213,86.72 H 88.140605 93.12 L 93.1032,80.88 Z M 57.213114,57.617744 57.12,56.515491 56.288384,57.77777 55.456771,59.040048 56.128384,60.065443 56.8,61.090838 57.053114,59.905421 c 0.139209,-0.651981 0.211209,-1.681437 0.16,-2.287677 z M 56.836992,47.73113 c 0.41447,-0.0904 0.464122,-0.443248 0.292678,-2.08 C 56.867875,43.151792 55.666262,35.758166 55.470157,35.44 55.388797,35.308 54.535357,35.2 53.573626,35.2 h -1.748602 l 0.247488,2.64 c 0.136118,1.452 0.244397,5.608394 0.240621,9.236432 l -0.0069,6.596432 2.015789,-2.916432 c 1.108684,-1.604038 2.240406,-2.965424 2.514937,-3.025302 z M 30.600956,25.76 C 32.117994,21.779167 33.92,16.6371 33.92,16.28903 33.92,16.130064 33.294582,16 32.530186,16 c -1.148496,0 -1.77358,0.271449 -3.600001,1.563333 -3.885541,2.748366 -8.024397,6.951268 -10.206281,10.364221 l -0.567409,0.887554 5.673467,-0.08755 L 29.50343,28.64 Z m 22.314382,1.2 c -1.831728,-4.163826 -3.1649,-5.900069 -3.773828,-4.914803 -0.09694,0.156858 0.205232,1.740858 0.671501,3.52 L 50.660778,28.8 h 1.532 1.532003 z m 30.755808,0.96 c -2.229008,-3.487414 -6.731088,-8.016906 -10.43418,-10.497717 -2.032604,-1.3617 -2.22343,-1.422328 -4.48,-1.423333 L 66.4,15.997894 l 2.350099,2.48105 c 2.205511,2.328402 5.908736,7.473004 6.795927,9.44105 l 0.396704,0.88 h 4.145436 4.14544 l -0.56246,-0.88 z M 93.12,20 v -4 h -3.04 c -1.672,0 -3.04,0.07634 -3.04,0.169636 0,0.0933 0.791155,1.102243 1.758125,2.242096 0.966966,1.139854 2.283353,2.863518 2.925305,3.830365 C 92.365379,23.208943 92.942224,24 93.005306,24 93.068387,24 93.12,22.2 93.12,20 Z M 14.224989,17.68 15.739308,16 H 12.669654 9.6 v 3.890185 3.890186 l 1.555335,-2.210186 C 12.01077,20.354583 13.392114,18.604 14.224989,17.68 Z"
        style="fill:#a6d487;stroke-width:0.31999999"/>
    <path
        id="path4054"
        d="m 48.48,101.96866 c -1.885613,-0.48291 -2.682595,-0.88334 -3.453466,-1.73514 C 44.480608,99.630278 44.5124,99.495354 45.910115,96.483894 46.707552,94.765766 47.36,93.306022 47.36,93.240013 47.36,93.174006 46.667744,93.12 45.821654,93.12 h -1.538345 l -1.003251,2.257952 -1.003252,2.257952 -1.218403,-0.217062 c -2.048105,-0.36488 -7.165734,-2.066503 -9.663469,-3.213124 L 29.029868,93.12 H 16.122729 3.2155891 L 3.1159297,75.28 C 3.0470597,62.951626 2.8812529,56.228925 2.5792467,53.52 c -0.369147,-3.311165 -0.3692715,-4.528835 -8e-4,-7.84 0.2928216,-2.63137 0.4694976,-9.206019 0.537446,-20 L 3.2171152,9.6 h 9.9052288 9.905229 l 1.7745,-1.1351341 C 26.610084,7.308295 31.481762,4.7753763 32.99697,4.2041136 l 0.836972,-0.3155539 -0.449334,2.45572 C 33.137475,7.6949258 32.873357,8.98 32.79768,9.2 32.7001,9.483689 33.108371,9.6 34.20176,9.6 h 1.541674 L 36.431715,5.6611846 C 36.810272,3.4948362 37.12,1.4743167 37.12,1.1711415 c 0,-0.30317529 0.186934,-0.62296083 0.415408,-0.71063456 0.491485,-0.18860102 10.896698,4.46446686 16.129229,7.21277046 3.618681,1.9006541 3.703677,1.9266813 6.28184,1.9236826 L 62.56,9.5939197 60.48,8.2537856 C 59.336,7.516712 55.77575,5.5851398 52.568333,3.9614035 L 46.736666,1.0091553 48.888333,0.7759231 C 51.474141,0.49563187 57.976109,1.0622717 61.76,1.8976756 67.023066,3.0596507 71.775123,4.9694525 76.51823,7.8288534 L 79.456166,9.6 h 10.006829 10.006829 l 0.198656,18.48 c 0.239453,22.275216 0.239472,19.864426 -3.2e-4,44.8 L 99.473466,93.12 H 86.366128 73.25879 l -1.526224,0.773395 c -3.327776,1.686314 -13.096745,4.529024 -13.652867,3.972903 -0.07945,-0.07944 0.122375,-0.855863 0.448483,-1.72537 1.216167,-3.242659 1.24337,-3.071027 -0.469065,-2.959584 l -1.51592,0.09866 -1.525959,4.118394 c -0.839276,2.265116 -1.66896,4.261392 -1.843737,4.436172 -0.50873,0.50873 -2.957402,0.57869 -4.693434,0.13409 z M 16.119104,83.44 C 14.37011,81.636 12.187814,79.088125 11.269558,77.778051 L 9.6,75.396102 V 81.058051 86.72 h 4.849547 4.849546 z m 35.073661,0.48 c 1.152793,-3.185478 2.973017,-9.096042 3.733149,-12.122138 l 0.513148,-2.04286 -1.879529,-2.87248 c -1.033744,-1.579866 -1.970973,-2.87474 -2.08273,-2.877501 -0.49224,-0.01216 -1.216563,1.6972 -2.167421,5.114979 -2.007932,7.217341 -4.597353,12.568941 -6.286758,12.992957 -1.056048,0.265049 -3.583498,-0.993075 -6.144237,-3.058506 C 35.496877,77.940157 34.587085,77.44 33.941686,77.44 32.704874,77.44 31.440464,75.912877 29.57001,72.16 28.588577,70.190854 27.97749,68.419747 27.637833,66.56 27.36461,65.064 26.862427,62.581574 26.521872,61.043501 25.439102,56.153315 25.131097,51.640099 25.55821,46.922928 25.893996,43.21441 26.817471,37.549357 27.370009,35.808464 27.555387,35.22439 27.307214,35.2 21.179201,35.2 h -6.383927 l -0.83196,2.64 c -2.416037,7.66663 -2.364425,16.543085 0.1395,23.992096 3.637927,10.822592 12.13716,19.877808 22.493119,23.964525 2.194771,0.866112 2.504947,0.901779 7.933805,0.912365 l 5.649734,0.01101 1.013293,-2.8 z m 14.703024,1.830058 C 70.757933,83.875018 75.983651,80.253894 79.842995,76.085446 89.368922,65.796566 92.645424,51.21321 88.435754,37.84 L 87.604726,35.2 h -4.54567 -4.545674 l 0.641789,2.32 c 0.540704,1.954592 0.642093,3.302819 0.643731,8.56 0.0019,5.73136 -0.06636,6.49304 -0.836064,9.344304 -0.460905,1.707366 -1.327507,4.371366 -1.925782,5.92 -0.598275,1.548634 -1.320083,4.015011 -1.604016,5.480838 -0.589104,3.041277 -1.856509,5.954208 -3.789859,8.710384 L 70.30727,77.44 h -1.869097 c -1.832707,0 -1.933677,0.04829 -5.185821,2.48 l -3.31672,2.48 -0.651024,2.16 -0.651024,2.16 h 2.37353 c 1.87614,0 2.900601,-0.203261 4.888675,-0.969942 z M 93.12,80.770038 v -5.949961 l -1.68,2.501859 c -0.924,1.376026 -3.174822,4.053507 -5.001827,5.949962 L 83.116342,86.72 H 88.118173 93.12 Z M 57.216931,57.82808 57.12,56.51623 56.288384,57.778141 55.456771,59.040048 56.128384,60.065309 56.8,61.09057 57.056931,60.115251 c 0.141312,-0.536425 0.213312,-1.565651 0.16,-2.287171 z M 56.83847,47.730845 c 0.423044,-0.09224 0.466464,-0.464179 0.280183,-2.4 -0.250371,-2.601837 -1.3872,-9.468707 -1.633562,-9.867328 C 55.395517,35.318582 54.533552,35.2 53.569616,35.2 h -1.752611 l 0.251497,2.96 c 0.138324,1.628 0.238023,5.799395 0.221552,9.269766 l -0.02995,6.309767 2.038871,-2.949767 c 1.121376,-1.622371 2.26415,-2.998886 2.539495,-3.058921 z M 30.60686,25.76 C 31.999186,22.164686 33.92,16.673832 33.92,16.28903 33.92,16.130064 33.294582,16 32.530186,16 c -1.150722,0 -1.781871,0.27533 -3.668775,1.600451 -3.83644,2.694227 -7.870558,6.805042 -10.134425,10.327103 l -0.570491,0.887554 5.667526,-0.08755 5.667526,-0.08755 z m 22.619796,1.84 c -1.821763,-4.366225 -3.52897,-6.774717 -4.121981,-5.815206 -0.117789,0.190588 0.183543,1.846977 0.669623,3.680865 L 50.658083,28.8 h 1.534631 1.53463 z m 30.441408,0.32 C 81.410086,24.406516 77.371661,20.292313 73.538589,17.600451 L 71.259629,16 l -2.589815,8.64e-4 -2.589814,8.64e-4 1.355805,1.199134 c 2.087574,1.846346 5.224707,5.824914 6.978723,8.85054 L 76,28.786298 l 4.116803,0.0068 4.116803,0.0069 z M 93.12,20.16 V 16 H 89.894403 86.66881 l 1.638166,1.837982 c 0.900992,1.01089 2.316509,2.873937 3.145594,4.140105 0.829088,1.266168 1.54343,2.311077 1.58743,2.322019 C 93.084,24.311047 93.12,22.448 93.12,20.16 Z M 14.257758,17.64784 15.739308,16 H 12.669654 9.6 v 3.901948 3.901949 l 1.588104,-2.254109 c 0.873457,-1.239759 2.254802,-2.995636 3.069654,-3.901948 z"
        style="fill:#98cd74;stroke-width:0.31999999"/>
    <path
        id="path4052"
        d="m 49.44,102.19843 c -2.254195,-0.56161 -3.753171,-1.23051 -4.291677,-1.9151 l -0.619785,-0.787935 1.415731,-3.050278 C 46.722922,94.767462 47.36,93.332998 47.36,93.257418 47.36,93.181837 46.65928,93.12 45.802845,93.12 h -1.557159 l -1.012048,2.263405 C 42.229046,97.630128 42.213994,97.645174 41.190794,97.42505 38.454131,96.836298 34.469805,95.529782 32.16,94.463728 L 29.6,93.282202 16.412447,93.194211 3.2248944,93.106224 3.1091525,74.953114 C 3.0316237,62.793411 2.8555044,55.611427 2.5757141,53.2 2.2324787,50.241757 2.232254,48.958243 2.5744538,46 2.8448395,43.662573 3.0323371,36.648275 3.1090691,26 L 3.2272483,9.6 h 9.9640667 9.964065 l 1.94231,-1.2599168 c 2.489389,-1.6147904 8.130438,-4.338623 8.408796,-4.060265 0.117277,0.1172775 -0.0058,1.3622957 -0.273433,2.7667069 L 32.74639,9.6 h 1.48952 1.489524 L 36.422717,5.7877318 C 36.806224,3.6909846 37.12,1.6834829 37.12,1.3266174 37.12,0.96975181 37.265062,0.58811837 37.442358,0.47854304 37.847834,0.22794512 47.419021,4.4662502 53.053821,7.3915981 L 57.307642,9.6 59.933821,9.5916768 62.56,9.5833536 60.32,8.1440822 C 59.088,7.3524813 55.531808,5.4237818 52.417347,3.8580813 L 46.754694,1.0113534 49.057347,0.79862925 C 53.844035,0.35642438 62.095885,1.6299844 67.84,3.6974749 70.622746,4.6990736 75.67809,7.2077907 77.76,8.62028 l 1.44,0.9769802 10.135085,0.00138 10.135085,0.00138 0.196944,18.6399998 c 0.236825,22.414499 0.236851,19.409997 -3.2e-4,44.48 l -0.193037,20.4 H 86.366269 73.258781 l -1.50936,0.760323 c -2.962675,1.49241 -8.720768,3.284746 -12.459287,3.878228 l -1.349926,0.2143 0.789926,-2.322473 C 59.164534,94.373014 59.52,93.281123 59.52,93.223952 c 0,-0.05717 -0.684,-0.102218 -1.52,-0.100099 l -1.52,0.0038 -1.425238,4.024201 c -0.783879,2.213312 -1.575879,4.226666 -1.76,4.474116 -0.35584,0.47823 -2.784938,0.83894 -3.854762,0.57241 z M 16.276151,83.6 C 14.614866,81.884 12.552174,79.472 11.692391,78.24 10.832608,77.008 10.010091,75.8632 9.8645747,75.696 9.7190586,75.5288 9.6,77.9408 9.6,81.056 v 5.664 h 4.848334 4.848335 z m 34.855724,0.48 c 1.42496,-3.949894 2.846195,-8.496758 3.618976,-11.577926 l 0.688771,-2.746221 -1.879811,-2.872906 c -1.033894,-1.580099 -1.971251,-2.875165 -2.083008,-2.877926 -0.493024,-0.01219 -1.214771,1.721686 -2.294825,5.512912 -1.97689,6.939293 -4.390544,11.94983 -6.034436,12.526963 -1.085987,0.381264 -3.524857,-0.796467 -6.30103,-3.042774 C 35.500643,77.91313 34.626768,77.44 33.961251,77.44 c -1.258502,0 -2.509148,-1.50377 -4.391241,-5.28 -0.981433,-1.969146 -1.59252,-3.740253 -1.932177,-5.6 -0.273223,-1.496 -0.76625,-3.944 -1.095615,-5.44 -1.034721,-4.69977 -1.376991,-9.757037 -0.97016,-14.334742 0.313705,-3.529837 1.014476,-7.723709 1.788786,-10.705258 l 0.228537,-0.88 h -6.408601 -6.4086 l -0.658162,2 c -1.867294,5.674272 -2.444054,12.857712 -1.495507,18.626294 2.177944,13.245152 10.885945,24.313008 23.441911,29.794637 l 2.499578,1.091255 5.809738,0.0039 5.809734,0.0039 0.952403,-2.64 z M 67.84,84.910864 C 78.16104,79.845149 85.700381,71.018195 88.766982,60.409853 90.879501,53.101981 90.702106,44.542032 88.285981,37.2 l -0.65816,-2 h -4.569904 -4.569901 l 0.615872,2.48 c 0.80455,3.239757 1.106406,10.025325 0.600035,13.488422 -0.503325,3.44226 -1.423635,6.919911 -2.718224,10.271578 -0.577833,1.496 -1.279721,3.919315 -1.559757,5.385142 -0.579923,3.035616 -1.844169,5.946733 -3.782761,8.710384 L 70.30727,77.44 h -1.955904 c -1.845619,0 -2.055017,0.08138 -3.713635,1.443274 -0.966752,0.793798 -2.426909,1.900473 -3.244793,2.459273 -1.336916,0.913415 -1.552176,1.23921 -2.13194,3.226659 l -0.64488,2.21066 2.931943,-0.109933 c 2.781625,-0.104298 3.104198,-0.19448 6.291939,-1.759069 z m 25.28,-4.173402 v -5.98254 l -1.84,2.696486 c -1.012,1.483066 -3.262256,4.175206 -5.000566,5.982538 L 83.118867,86.72 H 88.119434 93.12 Z M 57.214406,58.112102 57.12,56.51784 l -0.831616,1.261104 -0.831613,1.261104 0.671379,1.02152 c 0.645476,0.982106 0.681204,0.99496 0.92602,0.333158 0.140054,-0.378598 0.21216,-1.405779 0.160236,-2.282624 z M 56.808922,47.736538 c 0.272172,-0.05978 0.470457,-0.465124 0.469603,-0.96 C 57.277245,46.009792 56.355229,39.504742 55.807834,36.4 l -0.211572,-1.2 h -1.892784 -1.89278 l 0.254652,3.28 c 0.140058,1.804 0.232423,5.988035 0.205255,9.297856 l -0.0494,6.017853 2.058316,-2.977853 c 1.132077,-1.637821 2.270304,-3.024416 2.529396,-3.081318 z M 31.543613,23.36 c 1.08928,-2.904 2.081024,-5.748 2.203875,-6.32 L 33.970851,16 H 32.58201 c -1.118968,0 -1.814792,0.285748 -3.58089,1.470531 -3.60983,2.421648 -8.033415,6.921163 -10.280558,10.457023 l -0.564067,0.887554 5.703304,-0.08755 5.703304,-0.08755 z m 21.909875,4.675475 c -0.656042,-1.725517 -2.873898,-5.860853 -3.359373,-6.263759 -0.384909,-0.319447 -0.615033,-0.338796 -0.879853,-0.07398 -0.264816,0.264817 -0.12486,1.240516 0.535108,3.730437 L 50.643088,28.8 h 1.550538 c 1.502492,0 1.541526,-0.02369 1.259862,-0.764525 z M 83.67449,27.92 C 81.479827,24.465799 77.614141,20.496778 73.806371,17.78809 L 71.292739,16 h -2.57199 -2.571994 l 2.692717,2.8 c 2.530221,2.631029 4.645661,5.500512 6.369587,8.64 l 0.746791,1.36 h 4.137878 4.137878 z M 93.12,20.16 V 16 H 89.917805 86.71561 l 1.907804,2.27218 c 1.04929,1.249699 2.454279,3.120439 3.122196,4.157201 0.667913,1.036762 1.25039,1.886281 1.29439,1.88782 0.044,0.0015 0.08,-1.869201 0.08,-4.157201 z m -82.123429,1.762097 c 0.64195,-0.966847 1.962016,-2.694847 2.93348,-3.84 L 15.696348,16 H 12.648174 9.6 v 3.84 c 0,2.112 0.051613,3.84 0.1146944,3.84 0.063082,0 0.6399266,-0.791057 1.2818766,-1.757903 z"
        style="fill:#8cc865;stroke-width:0.31999999"/>
    <path
        id="path4050"
        d="m 49.12,102.07157 c -2.686003,-0.54205 -4.32,-1.50899 -4.32,-2.556415 0,-0.300109 0.576,-1.792403 1.28,-3.316208 0.704,-1.523805 1.28,-2.839942 1.28,-2.924752 C 47.36,93.189389 46.661318,93.12 45.807373,93.12 h -1.552627 l -1.026989,2.228077 c -1.007472,2.185737 -1.046378,2.224406 -2.047373,2.034989 -2.361469,-0.446861 -6.654707,-1.82682 -9.340942,-3.00242 L 28.958884,93.12 H 16.09398 3.2290755 L 3.0994186,74.64 C 3.0245628,63.97079 2.8164172,54.77367 2.6069549,52.88 2.3370182,50.439603 2.3366486,48.760397 2.6055114,46.32 2.8055936,44.503907 3.025972,35.577651 3.0992872,26.32 L 3.2316998,9.6 h 9.9406232 9.940623 L 25.396473,8.1803987 C 28.218111,6.4262698 33.229818,4.003152 33.49264,4.2659722 33.66632,4.4396538 33.182877,7.5907222 32.760195,9.04 c -0.140326,0.4811466 0.06501,0.56 1.45824,0.56 0.891863,0 1.622343,-0.108 1.62329,-0.24 0.0046,-0.636712 1.541753,-8.77014605 1.684489,-8.91288134 0.23505,-0.23505 11.90089,5.01307394 16.129392,7.25614664 3.546269,1.8811721 3.597469,1.8966784 6.24,1.8898873 L 62.56,9.5863046 60.32,8.1287603 C 59.088,7.3271107 55.553837,5.404576 52.466301,3.8564611 L 46.852602,1.0417062 49.038,0.85849034 C 51.701181,0.63521882 57.665069,1.0923171 61.035309,1.7780162 66.417437,2.8730483 72.536784,5.3481194 77.300784,8.3568579 L 79.269162,9.6 h 10.097363 10.097363 l 0.197834,19.12 c 0.235718,22.781328 0.235772,18.038349 -6.4e-4,43.52 L 99.467494,93.12 H 86.413616 73.359741 l -2.359952,1.071206 c -1.297971,0.589162 -3.295949,1.380224 -4.439949,1.757917 -1.973568,0.651575 -7.40497,1.949117 -8.220938,1.963952 -0.256505,0.0047 -0.125846,-0.743065 0.4,-2.289123 0.429517,-1.262829 0.780938,-2.342829 0.780938,-2.4 C 59.52,93.166778 58.8,93.12 57.92,93.12 c -0.88,0 -1.6,0.145101 -1.6,0.322448 0,0.177347 -0.658659,2.110976 -1.46369,4.296954 -1.331913,3.616688 -1.552281,4.005388 -2.44775,4.317548 -1.099795,0.3834 -1.453382,0.38497 -3.28856,0.0146 z M 16.239657,83.553987 c -1.671348,-1.741309 -3.729946,-4.153309 -4.574661,-5.36 C 10.82028,76.987293 10.010091,75.8632 9.8645747,75.696 9.7190586,75.5288 9.6,77.9408 9.6,81.056 v 5.664 h 4.839236 4.839237 z M 50.891008,84.88 c 1.22617,-3.236989 3.068486,-9.10871 3.817194,-12.165926 l 0.726348,-2.965927 -1.877273,-2.869053 c -1.032503,-1.57798 -1.968717,-2.871312 -2.080474,-2.874073 -0.497296,-0.01229 -1.229417,1.726608 -2.301667,5.466784 C 47.29464,76.031274 44.84664,81.300867 43.366662,81.97519 42.37329,82.427802 39.958544,81.32495 37.051603,79.091011 35.576896,77.957722 34.605837,77.44 33.954899,77.44 c -1.155443,0 -2.380554,-1.374 -4.03879,-4.529632 C 28.374236,69.976179 27.884282,68.491085 27.345954,65.12 27.093006,63.536 26.671763,61.272109 26.409858,60.08913 25.552791,56.217898 25.232727,51.121402 25.589001,47.018333 25.876601,43.706138 26.675816,38.783984 27.365067,36.08 l 0.224314,-0.88 h -6.420769 -6.420768 l -0.816696,2.585299 C 11.485391,45.527488 11.551734,54.257235 14.114552,61.918598 17.736076,72.74489 25.904659,81.400621 36.8,85.956934 c 1.612368,0.674276 2.247942,0.737149 7.577008,0.74954 L 50.194016,86.72 Z m 16.656554,0.200864 C 85.588374,76.43208 94.39105,56.532374 88.468851,37.785299 L 87.652157,35.2 h -4.582071 -4.58207 l 0.641245,2.48 c 0.519913,2.010752 0.645686,3.569869 0.664704,8.24 0.0265,6.507786 -0.425251,9.064147 -2.657815,15.04 -0.657532,1.76 -1.425878,4.399315 -1.707433,5.865142 -0.583507,3.037818 -1.848989,5.949648 -3.785536,8.710384 L 70.30727,77.44 h -1.981193 c -1.906048,0 -2.059034,0.0625 -4.033632,1.647837 C 63.1636,79.99415 61.7,81.093286 61.04,81.530362 c -0.66,0.437078 -1.2,0.812009 -1.2,0.83318 0,0.02118 -0.28175,1.023725 -0.626112,2.227892 l -0.626112,2.189398 2.946112,-0.114688 c 2.728374,-0.106211 3.172826,-0.223373 6.013674,-1.58528 z M 93.12,80.737462 v -5.98254 l -1.815462,2.653616 c -0.998506,1.459484 -3.245706,4.151628 -4.99378,5.982537 L 83.132442,86.72 H 88.126221 93.12 Z M 57.214406,58.112102 57.12,56.51784 l -0.831616,1.261104 -0.831613,1.261104 0.671379,1.02152 c 0.645476,0.982106 0.681204,0.99496 0.92602,0.333158 0.140054,-0.378598 0.21216,-1.405779 0.160236,-2.282624 z M 56.808922,47.736538 C 57.543091,47.57529 57.349715,44.942246 56.1056,38.16 L 55.562627,35.2 H 53.67991 51.797194 l 0.261404,3.44 c 0.14377,1.892 0.232007,6.086387 0.19608,9.320858 l -0.06532,5.880857 2.074243,-3.000857 c 1.140835,-1.650471 2.28623,-3.047418 2.545321,-3.10432 z M 31.61803,23.303409 c 1.109916,-3.016041 2.099916,-5.893143 2.199999,-6.39356 C 33.996477,16.01762 33.972045,16 32.556464,16 30.732948,16 28.301409,17.557681 24.483456,21.171691 22.100832,23.427044 18.24,28.009488 18.24,28.582086 c 0,0.119853 2.556,0.215016 5.68,0.211474 l 5.68,-0.0064 2.01803,-5.48371 z m 21.835458,4.732066 c -0.656042,-1.725517 -2.873898,-5.860853 -3.359373,-6.263759 -0.396662,-0.329202 -0.610326,-0.343506 -0.893984,-0.05985 -0.283657,0.283657 -0.237651,0.888431 0.192493,2.530438 0.31088,1.186731 0.706269,2.697694 0.87864,3.357694 0.308781,1.182292 0.336717,1.2 1.893149,1.2 1.533293,0 1.5712,-0.02248 1.289075,-0.764525 z M 84.16,28.582086 c 0,-0.119852 -0.803802,-1.267349 -1.78623,-2.549993 C 80.174445,23.160679 76.000019,19.175391 73.290109,17.36 71.324413,16.043164 71.178915,16 68.705888,16 h -2.554093 l 2.554234,2.660548 c 2.531069,2.636419 5.119705,6.15745 6.454589,8.779452 l 0.69239,1.36 h 4.153494 C 82.290928,28.8 84.16,28.701939 84.16,28.582086 Z M 93.12,20.16 V 16 H 89.917805 86.71561 l 1.907804,2.27218 c 1.04929,1.249699 2.454279,3.120439 3.122196,4.157201 0.667913,1.036762 1.25039,1.886281 1.29439,1.88782 0.044,0.0015 0.08,-1.869201 0.08,-4.157201 z m -82.165894,1.826054 c 0.618594,-0.93167 1.943999,-2.65967 2.945345,-3.84 L 15.720079,16 H 12.66004 9.6 v 3.84 c 0,2.112 0.051613,3.84 0.1146944,3.84 0.063082,0 0.6208166,-0.762276 1.2394116,-1.693946 z"
        style="fill:#84c359;stroke-width:0.31999999"/>
    <path
        id="path4048"
        d="m 48.953962,101.96583 c -2.118666,-0.45651 -3.950276,-1.4645 -4.103104,-2.258073 -0.06118,-0.317674 0.478352,-1.846551 1.198953,-3.397504 C 46.770416,94.759299 47.36,93.407011 47.36,93.305168 47.36,93.203325 46.667821,93.12 45.821821,93.12 h -1.538179 l -1.079578,2.2316 c -1.229366,2.541226 -0.696022,2.436634 -5.548266,1.088032 -1.553308,-0.431718 -4.145308,-1.354906 -5.759999,-2.05153 L 28.96,93.121514 16.094538,93.120755 3.2290755,93.12 3.0972367,74.64 C 3.0247254,64.476 2.8116661,54.684 2.6237716,52.88 2.3821015,50.559693 2.3816794,48.640307 2.6223284,46.32 2.8094294,44.516 3.0230791,35.516 3.0971057,26.32 L 3.2316998,9.6 h 9.9406232 9.940623 L 25.396529,8.176705 C 28.060954,6.5160422 33.251411,4.0247459 33.509392,4.2827245 33.670016,4.4433498 33.164352,7.6542314 32.760195,9.04 c -0.140326,0.4811466 0.06501,0.56 1.45824,0.56 0.891863,0 1.625245,-0.108 1.629741,-0.24 0.02317,-0.6797875 1.533366,-8.76820806 1.66096,-8.89580192 0.29232,-0.29232174 13.396371,5.67246942 17.212256,7.83479292 2.29681,1.3015188 2.384736,1.3228954 5.070694,1.2327476 L 62.52544,9.44 59.82272,7.7865562 C 57.007981,6.0645821 47.709146,1.3173624 46.979082,1.2296506 45.161347,1.0112637 51.83495,0.81605968 54.72,1.0032274 62.642995,1.5172319 70.547674,4.0918822 77.30473,8.3593488 L 79.269162,9.6 h 10.09582 10.095821 l 0.198035,19.28 c 0.23512,22.890154 0.235184,17.585738 -6.4e-4,43.19321 l -0.193593,21.033209 -13.332368,0.09053 -13.332368,0.09053 -3.060627,1.341876 c -2.89448,1.269027 -7.43858,2.625308 -10.467744,3.124313 l -1.368368,0.225415 0.808368,-2.147639 C 59.156234,94.65024 59.52,93.556947 59.52,93.401901 59.52,93.246854 58.836,93.122787 58,93.126195 l -1.52,0.0062 -1.580422,4.31545 c -1.5461,4.221715 -1.605175,4.322315 -2.72,4.632015 -0.626768,0.17412 -1.211578,0.30531 -1.299578,0.29154 -0.088,-0.0138 -0.954717,-0.19627 -1.926038,-0.40556 z M 17.051955,84.4 C 15.732045,83.124 13.569521,80.64 12.246345,78.88 10.923169,77.12 9.7864416,75.62 9.7202848,75.546666 9.6541283,75.473334 9.6,77.957334 9.6,81.066666 V 86.72 h 4.925894 4.925895 z m 34.142426,-0.32 c 1.139369,-2.97696 3.289097,-9.948205 3.874797,-12.565392 L 55.456896,69.782099 53.568448,66.89607 C 52.529802,65.308755 51.583744,64.007782 51.466099,64.005021 51.030426,63.994781 49.985638,66.134387 49.593434,67.84 48.994077,70.446474 46.824387,76.612029 45.780125,78.676189 44.761258,80.69015 43.459325,82.24 42.78639,82.24 41.953597,82.24 38.56415,80.342189 36.802269,78.889382 35.531638,77.841651 34.762163,77.44 34.025568,77.44 c -0.786266,0 -1.247485,-0.274051 -2.019562,-1.2 -1.765441,-2.117283 -3.823447,-6.690755 -4.35588,-9.68 -0.266462,-1.496 -0.771183,-4.088 -1.121604,-5.76 -1.582,-7.548371 -1.28218,-16.408083 0.836545,-24.72 l 0.224314,-0.88 h -6.420769 -6.420768 l -0.816696,2.585299 C 12.725786,41.600947 12.16,45.375104 12.16,49.6 c 0,10.294842 3.73091,19.569245 10.850455,26.972371 4.032473,4.193095 7.620141,6.677783 13.091161,9.066467 l 2.458384,1.073348 5.811987,0.0039 5.811991,0.0039 1.010403,-2.64 z M 67.62239,85.045418 C 72.001014,82.946896 74.883942,80.955859 78.262086,77.697325 86.122355,70.115363 90.24,60.456355 90.24,49.6 c 0,-4.224896 -0.565786,-7.999053 -1.771149,-11.814701 L 87.652157,35.2 h -4.603741 -4.603741 l 0.303904,1.04 c 0.650698,2.226758 1.248848,6.939754 1.248848,9.84 0,4.969059 -0.972422,9.814061 -3.114966,15.52 -0.528695,1.408 -1.187255,3.759315 -1.463466,5.225142 -0.570985,3.030167 -1.832112,5.939447 -3.775814,8.710384 L 70.30727,77.44 h -2.025462 c -2.013242,0 -2.040851,0.01242 -4.576512,2.059578 -1.403078,1.132768 -2.8364,2.212291 -3.185158,2.39894 -0.378794,0.202727 -0.838852,1.043655 -1.142612,2.088557 -0.27968,0.962055 -0.599049,1.985149 -0.709715,2.273539 -0.179475,0.467706 0.123587,0.511735 2.805488,0.407597 2.810973,-0.109152 3.211264,-0.214793 6.149091,-1.622793 z M 93.12,80.759062 v -5.960934 l -2,2.83672 c -1.1,1.560195 -3.368,4.24287 -5.04,5.961504 l -3.04,3.124784 5.04,-6.4e-4 L 93.12,86.72 Z M 57.281882,58.534669 c 0.0905,-1.218067 0.134992,-2.214669 0.09887,-2.214669 -0.03612,0 -0.486387,0.60729 -1.000579,1.34953 l -0.934896,1.349529 0.67359,1.027578 c 0.370477,0.565165 0.746688,0.954477 0.836029,0.865136 0.08934,-0.08934 0.236486,-1.15904 0.326989,-2.377104 z m -0.47296,-10.798131 c 0.295846,-0.06498 0.468899,-0.481597 0.465216,-1.12 C 57.267322,45.435536 56.480582,39.71599 55.956848,37.04 L 55.596733,35.2 H 53.69272 51.788707 l 0.265648,3.28 c 0.146106,1.804 0.238387,5.995299 0.205072,9.314 l -0.06057,6.034 2.069495,-2.994 c 1.138224,-1.646701 2.281481,-3.04056 2.540573,-3.097462 z M 31.613271,23.32874 C 32.72057,20.324943 33.71057,17.447151 33.81327,16.933646 33.998602,16.006992 33.988621,16 32.480637,16 c -1.294354,0 -1.833417,0.221952 -3.64,1.498724 -2.77827,1.963494 -7.054032,6.12227 -9.02741,8.780416 -0.865275,1.165528 -1.573227,2.209528 -1.573227,2.32 0,0.110473 2.556,0.198652 5.68,0.195954 l 5.68,-0.0049 z M 53.76,28.634186 c 0,-0.0912 -0.707088,-1.574848 -1.571302,-3.297002 -1.71786,-3.423233 -2.383357,-4.230524 -2.988567,-3.625316 -0.283657,0.283657 -0.237651,0.888431 0.192493,2.530438 0.31088,1.186731 0.706269,2.697694 0.87864,3.357694 0.309046,1.183312 0.335485,1.2 1.901069,1.2 0.873216,0 1.587667,-0.07462 1.587667,-0.165814 z m 30.4,-0.03505 c 0,-0.110472 -0.714432,-1.164576 -1.587629,-2.342451 C 80.54743,23.525195 75.95225,19.102053 73.323536,17.354122 71.35087,16.042424 71.206272,16 68.708042,16 h -2.579028 l 2.395847,2.48 c 2.537299,2.626422 4.652742,5.452967 6.346608,8.48 l 1.029625,1.84 h 4.129453 C 82.301747,28.8 84.16,28.70961 84.16,28.59914 Z M 93.12,20.16 V 16 h -3.189197 -3.189197 l 2.248634,2.8 c 1.236752,1.54 2.635888,3.411742 3.109197,4.159428 0.473312,0.747685 0.896563,1.359685 0.940563,1.36 0.044,3.14e-4 0.08,-1.871428 0.08,-4.159428 z m -82.447341,2.254141 c 0.460738,-0.696222 1.772904,-2.424222 2.915924,-3.84 L 15.666802,16 H 12.633401 9.6 v 3.84 c 0,2.112 0.052864,3.84 0.1174765,3.84 0.064612,0 0.4944435,-0.569636 0.9551825,-1.265859 z"
        style="fill:#7dc04f;stroke-width:0.31999999"/>
    <path
        id="path4046"
        d="M 47.602906,101.62466 C 45.917411,101.0231 44.8,100.2318 44.8,99.639776 c 0,-0.27801 0.576,-1.734624 1.28,-3.236918 0.704,-1.502298 1.28,-2.855517 1.28,-3.007152 C 47.36,93.244067 46.651299,93.12 45.78511,93.12 h -1.574889 l -1.03009,2.234806 C 42.008691,97.896282 42.569322,97.786422 37.76,96.416918 36.264,95.990915 33.816,95.110835 32.32,94.461184 L 29.6,93.28 16.418588,93.193123 3.237175,93.106243 3.0469114,74.153123 C 2.8090723,50.4608 2.8090592,47.894339 3.0466687,26.8 L 3.2404118,9.6 H 13.289409 23.338405 L 25.349203,8.2932336 C 27.617678,6.819009 33.252925,4.0262579 33.486947,4.2602794 33.633136,4.4064698 33.108982,7.861535 32.761834,9.04 c -0.141463,0.4802259 0.06109,0.56 1.42191,0.56 h 1.586877 L 36.448243,6 c 0.372695,-1.98 0.678512,-3.888 0.679591,-4.24 0.0048,-1.56391865 0.36022,-1.51163107 5.612265,0.8256532 2.804944,1.2482678 7.202592,3.3433186 9.772547,4.6556687 L 57.185293,9.6274134 59.872646,9.5337066 62.56,9.44 60.32,8.0089005 C 59.088,7.2217958 55.56,5.3148637 52.48,3.7712733 l -5.6,-2.80652808 4.528202,-0.002371 c 9.29423,-0.00487 18.329289,2.57812758 25.642595,7.33086098 L 79.061594,9.6 H 89.25719 99.452784 l 0.11361,19.92 c 0.06248,10.956 0.0623,29.748 -3.2e-4,41.76 l -0.11402,21.84 H 86.405891 73.359725 l -1.879818,0.839066 c -3.470038,1.54887 -8.716998,3.155324 -12.350259,3.78126 l -1.190445,0.205088 0.790445,-2.100012 C 59.164301,94.690394 59.52,93.604678 59.52,93.432694 59.52,93.260714 58.829494,93.12 57.985542,93.12 h -1.53446 l -1.373322,3.808461 c -1.857741,5.151849 -1.860176,5.154759 -4.295904,5.137499 -1.090022,-0.008 -2.520547,-0.20631 -3.17895,-0.4413 z M 17.789282,85.091085 C 15.748205,83.225654 12.486586,79.374157 10.771639,76.804272 L 9.6,75.048544 V 80.884272 86.72 h 4.985788 4.985788 z M 52.02881,81.76 c 0.91431,-2.64 2.066777,-6.404221 2.56104,-8.364934 l 0.898659,-3.564935 -1.904256,-2.910045 c -1.047338,-1.600524 -1.995693,-2.912304 -2.10745,-2.915065 -0.50455,-0.01248 -1.356585,1.910573 -2.239213,5.053885 -1.942528,6.917955 -4.304371,11.933504 -6.062665,12.874515 -0.572503,0.306393 -1.013639,0.199955 -2.682935,-0.647335 C 39.393213,80.728378 37.765782,79.634851 36.875475,78.856035 35.618848,77.756768 35.005056,77.44 34.131664,77.44 33.2228,77.44 32.81431,77.209395 32.006006,76.24 30.240565,74.122717 28.182559,69.549245 27.650126,66.56 27.383664,65.064 26.849379,62.4 26.462825,60.64 25.853701,57.866627 25.761993,56.501418 25.77495,50.4 c 0.01309,-6.164598 0.107727,-7.457805 0.76106,-10.4 0.41036,-1.848 0.81642,-3.684 0.902354,-4.08 L 27.594609,35.2 H 21.19205 14.789491 l -0.476934,1.2 c -0.262314,0.66 -0.81795,2.496 -1.234746,4.08 -0.680372,2.585699 -0.755783,3.534 -0.737965,9.28 0.01834,5.912624 0.08489,6.636147 0.874017,9.50097 C 16.549258,71.36976 24.869176,81.004346 36,85.647654 l 2.56,1.067924 5.903216,-0.07779 5.903213,-0.07779 z m 14.102028,4.000013 c 11.122631,-4.453715 19.697696,-14.309632 23.0553,-26.499043 0.789123,-2.864823 0.85568,-3.588346 0.874016,-9.50097 0.01782,-5.746 -0.05759,-6.694301 -0.737965,-9.28 -0.416797,-1.584 -0.972432,-3.42 -1.234746,-4.08 l -0.476934,-1.2 h -4.639491 c -4.287207,0 -4.623152,0.04252 -4.424298,0.56 0.627949,1.634128 1.218026,5.48319 1.367731,8.92169 0.212048,4.870348 -0.437897,9.141097 -2.136422,14.03831 -0.671472,1.936 -1.369747,3.952 -1.551725,4.48 -0.181978,0.528 -0.551062,2.159315 -0.820189,3.625142 -0.554528,3.020288 -1.809827,5.926039 -3.762934,8.710384 L 70.30727,77.44 h -2.154454 c -1.57047,0 -2.267853,0.13664 -2.572822,0.504106 -0.230103,0.277257 -1.616826,1.374841 -3.0816,2.439072 -2.513079,1.825872 -2.692605,2.036502 -3.18424,3.735894 C 59.0276,85.109581 58.725283,86.1 58.642336,86.32 c -0.112998,0.299718 0.506278,0.4 2.470118,0.4 2.166029,0 3.037044,-0.166621 5.018384,-0.959987 z M 93.12,80.8 c 0,-3.256 -0.05161,-5.92 -0.114694,-5.92 -0.06308,0 -0.660887,0.828 -1.328452,1.84 -1.712908,2.596694 -4.970156,6.455478 -7.066137,8.371085 L 82.828426,86.72 H 87.974211 93.12 Z M 57.342838,58.32 c 0.0759,-1.1 0.100701,-2 0.05511,-2 -0.04559,0 -0.50359,0.60729 -1.017782,1.34953 l -0.934896,1.349529 0.675673,1.030755 c 0.823581,1.256384 1.036659,0.95473 1.221891,-1.729814 z M 56.808922,47.736538 C 57.560579,47.57145 57.36959,44.862922 56.122365,38 L 55.61351,35.2 h -1.989552 -1.989552 l 0.291591,2.16 c 0.160374,1.188 0.299606,5.361635 0.309405,9.274742 l 0.01782,7.114743 2.042313,-2.954743 c 1.123274,-1.625107 2.254301,-3.001302 2.513392,-3.058204 z M 30.521848,26.32 c 0.505045,-1.364 1.544875,-4.244 2.310734,-6.4 L 34.225053,16 h -1.620231 c -1.428314,0 -1.902169,0.194905 -4.000485,1.645469 -2.885467,1.994723 -6.955244,5.978389 -8.918861,8.730152 C 18.890464,27.48973 18.24,28.490987 18.24,28.600637 18.24,28.710287 20.796806,28.8 23.921792,28.8 h 5.681792 z M 53.76,28.587654 c 0,-0.606477 -3.367219,-6.823349 -3.781888,-6.982472 -1.009402,-0.387344 -1.176858,0.408847 -0.57631,2.740117 C 50.662144,29.237816 50.389584,28.8 52.17504,28.8 53.046768,28.8 53.76,28.704444 53.76,28.587654 Z m 30.4,0.01298 c 0,-0.10965 -0.650464,-1.110907 -1.445475,-2.225016 -1.963619,-2.751763 -6.033395,-6.73543 -8.918861,-8.730152 L 71.415408,16 h -2.628387 -2.628384 l 2.286777,2.407382 c 2.681844,2.823285 4.745245,5.556657 6.318877,8.370572 L 75.895082,28.8 h 4.13246 C 82.300394,28.8 84.16,28.710287 84.16,28.600637 Z m 8.851133,-12.496171 c -0.07075,-0.07075 -1.512224,-0.0872 -3.203274,-0.03655 l -3.074637,0.09209 1.641994,1.92 c 0.903094,1.056 2.304122,2.915017 3.113389,4.131148 L 92.96,24.422297 93.049885,20.3277 c 0.04944,-2.252028 0.032,-4.152483 -0.03875,-4.223234 z M 13.717569,18.4 c 0.474229,-0.528 1.132097,-1.284 1.461929,-1.68 L 15.779192,16 H 12.689596 9.6 v 4.05698 4.05698 l 1.627667,-2.37698 C 12.122884,20.429641 13.24334,18.928 13.717569,18.4 Z"
        style="fill:#73bc42;stroke-width:0.31999999"/>
    <path
        id="path4044"
        d="M 3.2,51.36 V 9.6 H 51.36 99.52 V 51.36 93.12 H 51.36 3.2 Z m 89.92,9.6 V 35.2 H 51.36 9.6 V 60.96 86.72 H 51.36 93.12 Z M 32.006006,76.24 c -1.513115,-1.814669 -3.801682,-6.680026 -4.327497,-9.2 -0.597252,-2.862333 -0.597252,-7.057667 0,-9.92 0.525815,-2.519974 2.814382,-7.385331 4.327497,-9.2 l 1.000589,-1.2 h 3.176701 c 1.747187,0 3.176704,0.117059 3.176704,0.260131 0,0.143072 -0.451424,0.683072 -1.003168,1.2 -1.551203,1.453325 -3.626381,4.851117 -4.580496,7.499869 -1.544842,4.288685 -1.455933,9.562554 0.22927,13.6 0.882368,2.113994 3.098285,5.525984 4.351226,6.699869 0.551744,0.516928 1.003168,1.056928 1.003168,1.2 0,0.143072 -1.429517,0.260131 -3.176704,0.260131 H 33.006595 Z M 64,77.084867 c 0,-0.195325 0.692381,-1.112707 1.538624,-2.038633 1.853712,-2.028256 3.663363,-5.374996 4.354118,-8.052423 0.636576,-2.46744 0.652704,-7.377965 0.0319,-9.713811 C 69.203853,54.56791 67.345107,51.090349 65.58969,49.169638 64.71536,48.212982 64,47.270458 64,47.075133 64,46.838979 65.056554,46.72 67.153635,46.72 h 3.153635 l 1.28512,1.84 c 3.06272,4.38511 4.24761,8.156573 4.24761,13.52 0,5.363427 -1.18489,9.13489 -4.24761,13.52 l -1.28512,1.84 H 67.153635 C 65.056554,77.44 64,77.321021 64,77.084867 Z M 40.17649,70.16 c 0.313552,-0.484 2.032083,-2.968 3.818963,-5.52 1.786877,-2.552 3.355705,-4.820499 3.486281,-5.04111 C 47.690762,59.245728 45.314438,55.592029 40.71841,49.2 l -1.092919,-1.52 h 3.703091 3.703088 L 49.355837,51.155235 51.68,54.630474 54.054282,51.155235 56.428566,47.68 h 3.476976 c 3.217639,0 3.453565,0.04177 3.163114,0.56 -0.172621,0.308 -1.964867,2.861264 -3.982765,5.673923 l -3.668902,5.113923 3.060557,4.486077 C 60.160854,65.981264 62.032298,68.684 62.636307,69.52 L 63.734509,71.04 59.947254,71.02166 56.16,71.003328 53.92,67.504438 C 52.688,65.580048 51.591674,64.004294 51.483718,64.002762 51.375763,64.001254 50.24009,65.584 48.96,67.52 l -2.327437,3.52 H 43.119478 39.606394 Z M 93.12,22.4 V 16 H 51.36 9.6 v 6.4 6.4 h 41.76 41.76 z"
        style="fill:#43692c;stroke-width:0.31999999"/>
    <path
        id="path4042"
        d="M 3.2,51.36 V 9.6 H 51.36 99.52 V 51.36 93.12 H 51.36 3.2 Z m 89.92,9.6 V 35.2 H 51.36 9.6 V 60.96 86.72 H 51.36 93.12 Z M 32.006006,76.24 C 30.469448,74.397216 28.21469,69.549818 27.6797,66.939078 c -0.611592,-2.98455 -0.611592,-6.733606 0,-9.718156 0.53499,-2.61074 2.789748,-7.458138 4.326306,-9.300922 l 1.000589,-1.2 h 3.176701 c 1.747187,0 3.176704,0.11575 3.176704,0.257226 0,0.141475 -0.508045,0.749644 -1.128986,1.351484 -0.620944,0.60184 -1.712425,1.989751 -2.425516,3.084247 -4.770507,7.322054 -4.006145,17.292918 1.819136,23.730061 C 38.579085,76.197722 39.36,77.146013 39.36,77.25033 39.36,77.35465 37.930483,77.44 36.183296,77.44 H 33.006595 Z M 64,76.978144 c 0,-0.254019 0.255882,-0.650019 0.568624,-0.88 1.888698,-1.388877 4.467622,-5.807632 5.328515,-9.129923 0.649181,-2.505267 0.64704,-7.276989 -0.0044,-9.802032 C 69.202,54.488762 67.392349,51.142022 65.538637,49.113766 64.692381,48.18784 64,47.270458 64,47.075133 64,46.838979 65.056554,46.72 67.153635,46.72 h 3.153635 l 1.28512,1.84 c 3.06272,4.38511 4.24761,8.156573 4.24761,13.52 0,5.363427 -1.18489,9.13489 -4.24761,13.52 l -1.28512,1.84 H 67.153635 C 64.618803,77.44 64,77.349376 64,76.978144 Z M 39.87167,70.64 c 0.126192,-0.22 1.838906,-2.704 3.806032,-5.52 1.967127,-2.816 3.683463,-5.304186 3.81408,-5.529299 C 47.701757,59.228813 45.464144,55.795901 40.718995,49.2 l -1.093504,-1.52 h 3.703091 3.703088 L 49.355837,51.155235 51.68,54.630474 54.054282,51.155235 56.428566,47.68 h 3.484602 c 2.698934,0 3.431933,0.09019 3.251005,0.4 -0.202983,0.347571 -6.846864,9.759952 -7.516746,10.64896 -0.140755,0.1868 1.533533,2.917981 3.874336,6.32 L 63.643971,71.04 H 59.98352 56.323069 L 53.86024,67.342109 51.397411,63.644218 49.016877,67.342109 46.636339,71.04 h -3.497056 c -2.706678,0 -3.445197,-0.0904 -3.267613,-0.4 z M 93.12,22.4 V 16 H 51.36 9.6 v 6.4 6.4 h 41.76 41.76 z"
        style="fill:#212121;stroke-width:0.31999999"/>
  </g>
</svg>
